<?xml version="1.0" encoding="utf-8"?>
<!-- Generator: Adobe Illustrator 22.0.1, SVG Export Plug-In . SVG Version: 6.00 Build 0)  -->
<svg version="1.1" id="Layer_1" xmlns="http://www.w3.org/2000/svg" xmlns:xlink="http://www.w3.org/1999/xlink" x="0px" y="0px"
	 viewBox="0 0 200 200" style="enable-background:new 0 0 200 200;" xml:space="preserve">
<style type="text/css">
	.st0{fill:#8E714E;}
	.st1{fill:#442D22;}
	.st2{fill:#FFFFFF;}
	.st3{fill:#A6A385;}
	.st4{fill:#499D4A;}
	.st5{fill:#58AA50;}
	.st6{fill:#689F63;}
	.st7{fill:#333333;}
	.st8{clip-path:url(#SVGID_2_);}
	.st9{fill:url(#SVGID_3_);}
	.st10{clip-path:url(#SVGID_5_);}
	.st11{fill:url(#SVGID_6_);}
	.st12{clip-path:url(#SVGID_8_);}
	.st13{fill:url(#SVGID_9_);}
	.st14{clip-path:url(#SVGID_11_);}
	.st15{fill:url(#SVGID_12_);}
	.st16{clip-path:url(#SVGID_14_);}
	.st17{fill:url(#SVGID_15_);}
	.st18{clip-path:url(#SVGID_17_);}
	.st19{fill:url(#SVGID_18_);}
	.st20{fill:#F7DF1E;}
	.st21{fill:#53C1DE;}
</style>
<g>
	<path class="st0" d="M581.8-225.6c-0.2,0-0.3,0.4-0.3,0.6c0,1.4-0.1,5-0.1,7.5c0,0.1,0.1,0.2,0.2,0.2c0.5,0,1.8,0.1,2.8,0.1
		c1.5,0,2.3-0.2,2.8-0.4c1.2-0.6,1.8-2,1.8-3.4c0-3.3-2.3-4.6-5.8-4.6C583-225.7,582.3-225.7,581.8-225.6L581.8-225.6z M590.7-210.2
		c0-3.4-2.5-5.3-7.1-5.3c-0.2,0-1.7,0-2,0c-0.1,0-0.2,0.1-0.2,0.2c0,2.4,0,6.3,0.1,7.8c0.1,0.7,0.6,1.6,1.1,1.9c0.6,0.3,2,0.4,3,0.4
		C588.3-205.1,590.7-206.7,590.7-210.2L590.7-210.2z M574.8-227.5c0.3,0,1.4,0.1,4,0.1c2.5,0,4.5-0.1,7-0.1c3,0,7.1,1.1,7.1,5.5
		c0,2.2-1.5,4-3.6,4.8c-0.1,0-0.1,0.1,0,0.1c2.9,0.7,5.4,2.5,5.4,5.9c0,3.3-2.1,5.4-5.1,6.7c-1.8,0.8-4.1,1.1-6.4,1.1
		c-1.8,0-6.5-0.2-9.1-0.1c-0.3-0.1,0.2-1.3,0.5-1.5c0.6,0,1.1-0.1,1.8-0.3c0.9-0.2,1-0.5,1.2-1.9c0.1-1.2,0.1-5.5,0.1-8.5
		c0-4.2,0-7,0-8.4c0-1.1-0.4-1.4-1.2-1.6c-0.6-0.1-1.5-0.2-2.3-0.3C574-226.2,574.6-227.4,574.8-227.5L574.8-227.5z M554.9-206.1
		c0.8,0.7,2.4,0.9,3.9,0.9c1.9,0,3.7-0.3,5.5-2c1.8-1.7,3.1-4.2,3.1-8.3c0-3.9-1.5-7.1-4.5-8.9c-1.7-1.1-3.9-1.5-6.5-1.5
		c-0.8,0-1.5,0-1.9,0.2c-0.1,0.1-0.3,0.4-0.3,0.6c-0.1,0.7-0.1,6-0.1,9.1c0,3.2,0,7.7,0.1,8.2C554.2-207.2,554.4-206.4,554.9-206.1
		L554.9-206.1z M547.1-227.5c0.7,0,3.2,0.1,4.4,0.1c2.2,0,3.7-0.1,7.8-0.1c3.4,0,6.3,0.9,8.4,2.7c2.5,2.2,3.8,5.2,3.8,8.8
		c0,5.2-2.4,8.2-4.8,9.9c-2.4,1.8-5.5,2.8-9.9,2.8c-2.3,0-6.4-0.1-9.7-0.1h0c-0.2-0.3,0.3-1.5,0.6-1.5c0.9-0.1,1.1-0.1,1.6-0.3
		c0.7-0.3,0.9-0.7,1-1.9c0.1-2.4,0.1-5.2,0.1-8.5c0-2.3,0-6.8,0-8.3c-0.1-1.2-0.6-1.5-1.7-1.7c-0.5-0.1-1.2-0.2-2.2-0.3
		C546.3-226.2,547-227.3,547.1-227.5L547.1-227.5z"/>
	<path class="st1" d="M505.5-204.7c-0.9-0.1-1.5-0.2-2.2-0.6c-0.1-0.1-0.3-0.4-0.3-0.6c-0.1-1.2-0.1-4.6-0.1-7
		c0-1.9-0.3-3.5-1.1-4.6c-0.9-1.3-2.3-2.1-4-2.1c-1.5,0-3.5,1-5.2,2.5c0,0-0.3,0.3-0.3-0.1c0-0.4,0.1-1.1,0.1-1.7
		c0-0.5-0.2-0.7-0.2-0.7c-1.1,0.6-4.2,1.3-5.3,1.4c-0.8,0.2-1,1-0.2,1.2h0c0.9,0.3,1.5,0.6,2,0.9c0.3,0.3,0.3,0.7,0.3,1
		c0,2.6,0,6.5-0.1,8.7c0,0.9-0.3,1.2-0.9,1.3l0.1,0c-0.5,0.1-0.9,0.2-1.4,0.3c-0.2,0.2-0.2,1.3,0,1.5c0.4,0,2.4-0.1,4-0.1
		c2.3,0,3.4,0.1,4,0.1c0.2-0.3,0.3-1.3,0.2-1.5c-0.7,0-1.1-0.1-1.6-0.2c-0.6-0.1-0.8-0.4-0.8-1.2c-0.1-1.8-0.1-5.7-0.1-8.3
		c0-0.7,0.2-1.1,0.4-1.3c0.8-0.7,2.1-1.2,3.2-1.2c1.1,0,1.8,0.3,2.4,0.8c0.8,0.6,1,1.5,1.1,2.2c0.2,1.5,0.1,4.4,0.1,7
		c0,1.4-0.1,1.7-0.6,1.9c-0.2,0.1-0.9,0.2-1.6,0.3c-0.2,0.2-0.2,1.3,0,1.5c1,0,2.2-0.1,3.9-0.1c2.1,0,3.5,0.1,4.1,0.1
		C505.5-203.5,505.6-204.5,505.5-204.7L505.5-204.7z M515-217.9c-1.8,0-3,1.4-3,3.6c0,2.2,1,4.8,3.8,4.8c0.5,0,1.4-0.2,1.8-0.7
		c0.7-0.6,1.1-1.9,1.1-3.2C518.8-216.2,517.4-217.9,515-217.9L515-217.9z M514.8-202.7c-0.7,0-1.2,0.2-1.5,0.4
		c-1.4,0.9-2.1,1.8-2.1,2.9c0,1,0.4,1.8,1.2,2.5c1,0.9,2.4,1.3,4.1,1.3c3.5,0,5.1-1.9,5.1-3.8c0-1.3-0.7-2.2-2-2.7
		C518.6-202.5,516.9-202.7,514.8-202.7L514.8-202.7z M515-193.7c-2.1,0-3.6-0.4-4.9-1.4c-1.3-1-1.8-2.4-1.8-3.4c0-0.3,0.1-1,0.7-1.7
		c0.4-0.4,1.2-1.2,3.2-2.5c0.1,0,0.1-0.1,0.1-0.1c0-0.1-0.1-0.1-0.1-0.2c-1.6-0.6-2.1-1.6-2.2-2.2v-0.1c0-0.2-0.1-0.4,0.2-0.6
		c0.2-0.2,0.6-0.4,1-0.6c0.6-0.3,1.2-0.7,1.6-1c0.1-0.1,0.1-0.1,0.1-0.2s-0.1-0.1-0.1-0.2c-2.4-0.8-3.6-2.6-3.6-5.3
		c0-1.8,0.8-3.3,2.2-4.3c1-0.8,3.4-1.7,5-1.7h0.1c1.6,0,2.5,0.4,3.8,0.8c0.7,0.2,1.3,0.3,2.2,0.3c1.3,0,1.9-0.4,2.4-0.9
		c0,0.1,0.1,0.2,0.1,0.7c0,0.4-0.1,1.1-0.4,1.6c-0.3,0.4-0.9,0.7-1.5,0.7h-0.2c-0.6-0.1-0.9-0.1-0.9-0.1l-0.1,0.1c0,0.1,0,0.1,0,0.2
		l0,0.1c0.1,0.3,0.2,1.2,0.2,1.5c0,2.8-1.1,4.1-2.3,5c-1.2,0.9-2.5,1.4-4,1.5c0,0-0.2,0-0.5,0c-0.2,0-0.4,0-0.4,0h0
		c-0.3,0.1-1,0.4-1,1c0,0.5,0.3,1.1,1.8,1.2c0.3,0,0.6,0,1,0.1c2,0.1,4.4,0.3,5.5,0.7c1.6,0.6,2.6,2,2.6,3.7c0,2.5-1.8,4.9-4.9,6.4
		C518.1-194.1,516.6-193.7,515-193.7L515-193.7z M534.6-217.7c-0.7,0-1.4,0.2-1.9,0.5c-1.3,0.8-2,2.5-2,4.9c0,4.5,2.3,7.7,5.5,7.7
		c1,0,1.7-0.3,2.4-0.8c1-0.8,1.5-2.5,1.5-4.8C540.1-214.7,537.9-217.7,534.6-217.7L534.6-217.7z M535.3-203c-5.9,0-8-4.3-8-8.3
		c0-2.8,1.1-5,3.4-6.5c1.6-1,3.5-1.5,5.3-1.5c4.5,0,7.6,3.2,7.6,7.8c0,3.1-1.2,5.6-3.6,7.1C538.8-203.7,536.9-203,535.3-203
		L535.3-203L535.3-203z M473.9-217.7c-0.7,0-1.4,0.2-1.9,0.5c-1.3,0.8-2,2.5-2,4.9c0,4.5,2.3,7.7,5.5,7.7c1,0,1.7-0.3,2.4-0.8
		c1-0.8,1.5-2.5,1.5-4.8C479.4-214.7,477.2-217.7,473.9-217.7L473.9-217.7z M474.5-203c-5.9,0-8-4.3-8-8.3c0-2.8,1.1-5,3.4-6.5
		c1.6-1,3.5-1.5,5.3-1.5c4.5,0,7.6,3.2,7.6,7.8c0,3.1-1.2,5.6-3.6,7.1C478.1-203.7,476.2-203,474.5-203L474.5-203z M435.2-203.3
		c-0.1-0.1-0.1-0.4-0.1-0.8c0-0.3,0.1-0.4,0.1-0.5c0.7-0.1,1.1-0.2,1.5-0.3c0.7-0.2,1-0.6,1-1.4c0.1-2.1,0.1-6,0.1-8.7v-0.1
		c0-0.3,0-0.7-0.4-1c-0.6-0.3-1.2-0.7-2.1-0.9c-0.3-0.1-0.5-0.3-0.5-0.5c0-0.2,0.2-0.4,0.7-0.5c1.1-0.1,4.1-0.8,5.3-1.3
		c0.1,0.1,0.2,0.3,0.2,0.6l0,0.4c0,0.4-0.1,0.8-0.1,1.3c0,0.1,0.1,0.2,0.3,0.2c0.1,0,0.1,0,0.2-0.1c2.2-1.7,4.2-2.3,5.2-2.3
		c1.7,0,3,0.8,4,2.4c0.1,0.1,0.1,0.1,0.2,0.1c0.1,0,0.2,0,0.2-0.1c2-1.5,4.1-2.5,5.4-2.5c3.2,0,5.1,2.4,5.1,6.4c0,1.1,0,2.6,0,4
		c0,1.2,0,2.3,0,3.1c0,0.2,0.2,0.7,0.6,0.8c0.5,0.2,1.1,0.3,2,0.5h0c0.1,0.2-0.1,1.1-0.2,1.3c-0.2,0-0.5,0-0.9,0
		c-0.9,0-1.7-0.1-2.6-0.1c-2.1,0-3.2,0-4.3,0.1c-0.1-0.3-0.1-1.1,0-1.3c0.6-0.1,0.9-0.2,1.3-0.3c0.7-0.2,0.9-0.5,0.9-1.4
		c0-0.7,0.1-6.2-0.1-7.6c-0.2-1.4-1.2-3-3.5-3c-0.9,0-2.2,0.3-3.5,1.3c-0.1,0.1-0.1,0.2-0.1,0.3v0c0.1,0.7,0.1,1.5,0.1,2.8v2.2
		c0,1.5,0,3,0,4.1c0,0.8,0.4,0.9,0.8,1.1c0.2,0,0.3,0.1,0.5,0.1c0.3,0.1,0.6,0.1,1.1,0.2c0.1,0.1,0.1,0.6,0,1c0,0.2-0.1,0.3-0.1,0.3
		c-1.2,0-2.4-0.1-4.1-0.1c-0.5,0-1.4,0-2.2,0c-0.6,0-1.2,0-1.5,0c0-0.1-0.1-0.3-0.1-0.7c0-0.3,0.1-0.6,0.1-0.6
		c0.2,0,0.3-0.1,0.5-0.1c0.4-0.1,0.8-0.1,1.1-0.2c0.6-0.2,0.8-0.5,0.8-1.2c0.1-1.7,0.2-6.6,0-7.9c-0.4-2-1.5-3-3.4-3
		c-1.1,0-2.4,0.5-3.5,1.3c-0.2,0.1-0.3,0.5-0.3,0.8v2c0,2.5,0,5.6,0,6.9c0,0.4,0.2,0.9,1,1.1c0.2,0,0.4,0.1,0.8,0.1l0.6,0.1
		c0.1,0.2,0,1-0.1,1.3c-0.3,0-0.8,0-1.2,0c-0.7,0-1.7-0.1-2.7-0.1c-1.2,0-2.1,0-2.8,0.1C436-203.3,435.6-203.3,435.2-203.3
		L435.2-203.3z"/>
	<path class="st2" d="M417.1-195.1l-1.4-0.5c0,0,0.2-7.2-2.4-7.7c-1.7-2,0.3-84.7,6.5-0.3c0,0-2.1,1.1-2.5,2.9
		C416.8-198.8,417.1-195.1,417.1-195.1L417.1-195.1z"/>
	<path class="st3" d="M417.1-195.1l-1.4-0.5c0,0,0.2-7.2-2.4-7.7c-1.7-2,0.3-84.7,6.5-0.3c0,0-2.1,1.1-2.5,2.9
		C416.8-198.8,417.1-195.1,417.1-195.1L417.1-195.1z"/>
	<path class="st2" d="M417.8-202c0,0,12.4-8.1,9.5-25c-2.8-12.3-9.4-16.3-10.1-17.9c-0.8-1.1-1.5-3-1.5-3l0.5,34.2
		C416.2-213.7,415.1-203.3,417.8-202"/>
	<path class="st4" d="M417.8-202c0,0,12.4-8.1,9.5-25c-2.8-12.3-9.4-16.3-10.1-17.9c-0.8-1.1-1.5-3-1.5-3l0.5,34.2
		C416.2-213.7,415.1-203.3,417.8-202"/>
	<path class="st2" d="M414.9-201.6c0,0-11.6-7.9-10.9-21.9c0.7-13.9,8.8-20.8,10.4-22c1-1.1,1.1-1.5,1.1-2.6
		c0.7,1.5,0.6,23.2,0.7,25.7C416.6-212.5,415.7-203.4,414.9-201.6z"/>
	<path class="st5" d="M414.9-201.6c0,0-11.6-7.9-10.9-21.9c0.7-13.9,8.8-20.8,10.4-22c1-1.1,1.1-1.5,1.1-2.6
		c0.7,1.5,0.6,23.2,0.7,25.7C416.6-212.5,415.7-203.4,414.9-201.6z"/>
</g>
<g>
	<path class="st6" d="M264.1-147c-0.6,0-1.3-0.2-1.9-0.5l-5.9-3.5c-0.9-0.5-0.5-0.7-0.2-0.8c1.2-0.4,1.4-0.5,2.7-1.2
		c0.1-0.1,0.3,0,0.4,0l4.5,2.7c0.2,0.1,0.4,0.1,0.5,0l17.7-10.2c0.2-0.1,0.3-0.3,0.3-0.5v-20.4c0-0.2-0.1-0.4-0.3-0.5l-17.7-10.2
		c-0.2-0.1-0.4-0.1-0.5,0l-17.7,10.2c-0.2,0.1-0.3,0.3-0.3,0.5v20.4c0,0.2,0.1,0.4,0.3,0.5l4.8,2.8c2.6,1.3,4.2-0.2,4.2-1.8v-20.2
		c0-0.3,0.2-0.5,0.5-0.5h2.2c0.3,0,0.5,0.2,0.5,0.5v20.2c0,3.5-1.9,5.5-5.2,5.5c-1,0-1.8,0-4.1-1.1l-4.6-2.7
		c-1.1-0.7-1.9-1.9-1.9-3.2v-20.4c0-1.3,0.7-2.6,1.9-3.2l17.7-10.2c1.1-0.6,2.6-0.6,3.7,0l17.7,10.2c1.1,0.7,1.9,1.9,1.9,3.2v20.4
		c0,1.3-0.7,2.6-1.9,3.2L266-147.5C265.4-147.2,264.8-147,264.1-147"/>
	<path class="st6" d="M269.6-161.1c-7.7,0-9.4-3.6-9.4-6.5c0-0.3,0.2-0.5,0.5-0.5h2.3c0.3,0,0.5,0.2,0.5,0.4
		c0.3,2.3,1.4,3.5,6.1,3.5c3.7,0,5.3-0.8,5.3-2.8c0-1.1-0.5-2-6.2-2.6c-4.8-0.5-7.8-1.5-7.8-5.4c0-3.6,3-5.7,8.1-5.7
		c5.7,0,8.5,2,8.8,6.2c0,0.1,0,0.3-0.1,0.4c-0.1,0.1-0.2,0.2-0.4,0.2h-2.3c-0.2,0-0.4-0.2-0.5-0.4c-0.6-2.4-1.9-3.2-5.5-3.2
		c-4.1,0-4.5,1.4-4.5,2.5c0,1.3,0.6,1.7,6.1,2.4c5.4,0.7,8,1.7,8,5.6C278.4-163.3,275.1-161,269.6-161.1 M291.1-182.7h0.6
		c0.5,0,0.6-0.3,0.6-0.5c0-0.5-0.4-0.5-0.6-0.5h-0.6L291.1-182.7z M290.4-184.4h1.3c0.5,0,1.3,0,1.3,1c0,0.7-0.5,0.9-0.7,0.9
		c0.5,0,0.6,0.4,0.6,0.9c0,0.3,0.1,0.8,0.2,1h-0.8c0-0.2-0.1-1.2-0.1-1.2c-0.1-0.2-0.1-0.3-0.4-0.3h-0.7v1.5h-0.7V-184.4z
		 M288.8-182.5c0,1.6,1.3,2.9,2.9,2.9c1.6,0,2.9-1.3,2.9-2.9c0-1.6-1.3-2.9-2.9-2.9C290.1-185.3,288.8-184.1,288.8-182.5
		 M295.1-182.5c0,1.9-1.5,3.4-3.4,3.4c-1.9,0-3.4-1.5-3.4-3.4c0-1.9,1.6-3.4,3.4-3.4C293.5-185.9,295.1-184.4,295.1-182.5"/>
	<path class="st7" d="M209.3-226.9c0-0.8-0.4-1.6-1.1-2l-18.8-10.8c-0.3-0.2-0.7-0.3-1-0.3h-0.2c-0.4,0-0.7,0.1-1,0.3l-18.8,10.8
		c-0.7,0.4-1.1,1.2-1.1,2l0,29.1c0,0.4,0.2,0.8,0.6,1c0.3,0.2,0.8,0.2,1.1,0l11.2-6.4c0.7-0.4,1.1-1.2,1.1-2v-13.6
		c0-0.8,0.4-1.6,1.1-2l4.7-2.7c0.4-0.2,0.7-0.3,1.1-0.3c0.4,0,0.8,0.1,1.1,0.3l4.7,2.7c0.7,0.4,1.1,1.2,1.1,2v13.6
		c0,0.8,0.4,1.6,1.1,2l11.1,6.4c0.3,0.2,0.8,0.2,1.1,0c0.3-0.2,0.6-0.6,0.6-1L209.3-226.9z M297.8-211.8c0,0.2-0.1,0.4-0.3,0.5
		l-6.4,3.7c-0.2,0.1-0.4,0.1-0.6,0l-6.4-3.7c-0.2-0.1-0.3-0.3-0.3-0.5v-7.4c0-0.2,0.1-0.4,0.3-0.5l6.4-3.7c0.2-0.1,0.4-0.1,0.6,0
		l6.4,3.7c0.2,0.1,0.3,0.3,0.3,0.5L297.8-211.8z M299.6-266.9c-0.4-0.2-0.8-0.2-1.1,0c-0.3,0.2-0.6,0.6-0.6,1v28.8
		c0,0.3-0.2,0.5-0.4,0.7c-0.2,0.1-0.5,0.1-0.8,0l-4.7-2.7c-0.7-0.4-1.6-0.4-2.3,0L271-228.3c-0.7,0.4-1.1,1.2-1.1,2v21.7
		c0,0.8,0.4,1.6,1.1,2l18.8,10.8c0.7,0.4,1.6,0.4,2.3,0l18.8-10.8c0.7-0.4,1.1-1.2,1.1-2v-54c0-0.8-0.4-1.6-1.2-2L299.6-266.9z
		 M362.1-219.4c0.7-0.4,1.1-1.2,1.1-2v-5.3c0-0.8-0.4-1.6-1.1-2l-18.6-10.8c-0.7-0.4-1.6-0.4-2.3,0l-18.8,10.8
		c-0.7,0.4-1.1,1.2-1.1,2v21.7c0,0.8,0.4,1.6,1.1,2l18.6,10.6c0.7,0.4,1.5,0.4,2.2,0l11.3-6.3c0.4-0.2,0.6-0.6,0.6-1s-0.2-0.8-0.6-1
		l-18.9-10.8c-0.4-0.2-0.6-0.6-0.6-1v-6.8c0-0.4,0.2-0.8,0.6-1l5.9-3.4c0.3-0.2,0.8-0.2,1.1,0l5.9,3.4c0.3,0.2,0.6,0.6,0.6,1v5.3
		c0,0.4,0.2,0.8,0.6,1c0.3,0.2,0.8,0.2,1.1,0L362.1-219.4z"/>
	<path class="st6" d="M342-220.4c0.1-0.1,0.3-0.1,0.4,0l3.6,2.1c0.1,0.1,0.2,0.2,0.2,0.4v4.2c0,0.2-0.1,0.3-0.2,0.4l-3.6,2.1
		c-0.1,0.1-0.3,0.1-0.4,0l-3.6-2.1c-0.1-0.1-0.2-0.2-0.2-0.4v-4.2c0-0.2,0.1-0.3,0.2-0.4L342-220.4z"/>
	<g>
		<defs>
			<path id="SVGID_1_" d="M238.4-239.3l-18.7,10.8c-0.7,0.4-1.1,1.1-1.1,2v21.6c0,0.8,0.4,1.5,1.1,2l18.7,10.8
				c0.7,0.4,1.6,0.4,2.3,0l18.7-10.8c0.7-0.4,1.1-1.1,1.1-2v-21.6c0-0.8-0.4-1.5-1.1-2l-18.7-10.8c-0.3-0.2-0.7-0.3-1.1-0.3
				C239.2-239.6,238.8-239.5,238.4-239.3"/>
		</defs>
		<clipPath id="SVGID_2_">
			<use xlink:href="#SVGID_1_"  style="overflow:visible;"/>
		</clipPath>
		<g transform="translate(-78.306 -164.016)" class="st8">
			
				<linearGradient id="SVGID_3_" gradientUnits="userSpaceOnUse" x1="-22.301" y1="565.3051" x2="-21.7698" y2="565.3051" gradientTransform="matrix(-50.7531 103.536 103.536 50.7531 -59329.9141 -26461.2559)">
				<stop  offset="0.3" style="stop-color:#3E863D"/>
				<stop  offset="0.5" style="stop-color:#55934F"/>
				<stop  offset="0.8" style="stop-color:#5AAD45"/>
			</linearGradient>
			<path class="st9" d="M357.6-66.3l-52.6-25.8l-27,55l52.6,25.8L357.6-66.3z"/>
		</g>
	</g>
	<g>
		<defs>
			<path id="SVGID_4_" d="M219.1-203.6c0.2,0.2,0.4,0.4,0.7,0.6l16,9.2l2.7,1.5c0.4,0.2,0.9,0.3,1.3,0.3c0.1,0,0.3,0,0.4-0.1
				l19.7-36c-0.2-0.2-0.3-0.3-0.5-0.4l-12.2-7.1l-6.5-3.7c-0.2-0.1-0.4-0.2-0.6-0.2L219.1-203.6z"/>
		</defs>
		<clipPath id="SVGID_5_">
			<use xlink:href="#SVGID_4_"  style="overflow:visible;"/>
		</clipPath>
		<g transform="translate(-78.306 -164.016)" class="st10">
			
				<linearGradient id="SVGID_6_" gradientUnits="userSpaceOnUse" x1="-19.6797" y1="565.3931" x2="-19.3349" y2="565.3931" gradientTransform="matrix(142.4074 -105.2221 -105.2221 -142.4074 62587.6406 78411.8281)">
				<stop  offset="0.57" style="stop-color:#3E863D"/>
				<stop  offset="0.72" style="stop-color:#619857"/>
				<stop  offset="1" style="stop-color:#76AC64"/>
			</linearGradient>
			<path class="st11" d="M274.7-58.7l37.1,50.3l49.1-36.3L323.8-95L274.7-58.7z"/>
		</g>
	</g>
	<g>
		<defs>
			<path id="SVGID_7_" d="M239.3-239.6c-0.3,0-0.6,0.1-0.9,0.3l-18.6,10.7l20.1,36.5c0.3,0,0.6-0.1,0.8-0.3l18.7-10.8
				c0.6-0.3,1-0.9,1.1-1.5L240-239.5c-0.2,0-0.3,0-0.5,0C239.5-239.6,239.4-239.6,239.3-239.6"/>
		</defs>
		<clipPath id="SVGID_8_">
			<use xlink:href="#SVGID_7_"  style="overflow:visible;"/>
		</clipPath>
		<g transform="translate(-78.306 -164.016)" class="st12">
			
				<linearGradient id="SVGID_9_" gradientUnits="userSpaceOnUse" x1="-19.4152" y1="566.3322" x2="-19.1026" y2="566.3322" gradientTransform="matrix(129.8891 0 0 -129.8891 2819.9729 73508.6172)">
				<stop  offset="0.16" style="stop-color:#6BBF47"/>
				<stop  offset="0.38" style="stop-color:#79B461"/>
				<stop  offset="0.47" style="stop-color:#75AC64"/>
				<stop  offset="0.7" style="stop-color:#659E5A"/>
				<stop  offset="0.9" style="stop-color:#3E863D"/>
			</linearGradient>
			<path class="st13" d="M298.1-75.6V-28h40.6v-47.6L298.1-75.6z"/>
		</g>
	</g>
	<path class="st6" d="M264.1-147c-0.6,0-1.3-0.2-1.9-0.5l-5.9-3.5c-0.9-0.5-0.5-0.7-0.2-0.8c1.2-0.4,1.4-0.5,2.7-1.2
		c0.1-0.1,0.3,0,0.4,0l4.5,2.7c0.2,0.1,0.4,0.1,0.5,0l17.7-10.2c0.2-0.1,0.3-0.3,0.3-0.5v-20.4c0-0.2-0.1-0.4-0.3-0.5l-17.7-10.2
		c-0.2-0.1-0.4-0.1-0.5,0l-17.7,10.2c-0.2,0.1-0.3,0.3-0.3,0.5v20.4c0,0.2,0.1,0.4,0.3,0.5l4.8,2.8c2.6,1.3,4.2-0.2,4.2-1.8v-20.2
		c0-0.3,0.2-0.5,0.5-0.5h2.2c0.3,0,0.5,0.2,0.5,0.5v20.2c0,3.5-1.9,5.5-5.2,5.5c-1,0-1.8,0-4.1-1.1l-4.6-2.7
		c-1.1-0.7-1.9-1.9-1.9-3.2v-20.4c0-1.3,0.7-2.6,1.9-3.2l17.7-10.2c1.1-0.6,2.6-0.6,3.7,0l17.7,10.2c1.1,0.7,1.9,1.9,1.9,3.2v20.4
		c0,1.3-0.7,2.6-1.9,3.2L266-147.5C265.4-147.2,264.8-147,264.1-147"/>
	<path class="st6" d="M269.6-161.1c-7.7,0-9.4-3.6-9.4-6.5c0-0.3,0.2-0.5,0.5-0.5h2.3c0.3,0,0.5,0.2,0.5,0.4
		c0.3,2.3,1.4,3.5,6.1,3.5c3.7,0,5.3-0.8,5.3-2.8c0-1.1-0.5-2-6.2-2.6c-4.8-0.5-7.8-1.5-7.8-5.4c0-3.6,3-5.7,8.1-5.7
		c5.7,0,8.5,2,8.8,6.2c0,0.1,0,0.3-0.1,0.4c-0.1,0.1-0.2,0.2-0.4,0.2h-2.3c-0.2,0-0.4-0.2-0.5-0.4c-0.6-2.4-1.9-3.2-5.5-3.2
		c-4.1,0-4.5,1.4-4.5,2.5c0,1.3,0.6,1.7,6.1,2.4c5.4,0.7,8,1.7,8,5.6C278.4-163.3,275.1-161,269.6-161.1 M291.1-182.7h0.6
		c0.5,0,0.6-0.3,0.6-0.5c0-0.5-0.4-0.5-0.6-0.5h-0.6L291.1-182.7z M290.4-184.4h1.3c0.5,0,1.3,0,1.3,1c0,0.7-0.5,0.9-0.7,0.9
		c0.5,0,0.6,0.4,0.6,0.9c0,0.3,0.1,0.8,0.2,1h-0.8c0-0.2-0.1-1.2-0.1-1.2c-0.1-0.2-0.1-0.3-0.4-0.3h-0.7v1.5h-0.7V-184.4z
		 M288.8-182.5c0,1.6,1.3,2.9,2.9,2.9c1.6,0,2.9-1.3,2.9-2.9c0-1.6-1.3-2.9-2.9-2.9C290.1-185.3,288.8-184.1,288.8-182.5
		 M295.1-182.5c0,1.9-1.5,3.4-3.4,3.4c-1.9,0-3.4-1.5-3.4-3.4c0-1.9,1.6-3.4,3.4-3.4C293.5-185.9,295.1-184.4,295.1-182.5"/>
	<path class="st7" d="M209.3-226.9c0-0.8-0.4-1.6-1.1-2l-18.8-10.8c-0.3-0.2-0.7-0.3-1-0.3h-0.2c-0.4,0-0.7,0.1-1,0.3l-18.8,10.8
		c-0.7,0.4-1.1,1.2-1.1,2l0,29.1c0,0.4,0.2,0.8,0.6,1c0.3,0.2,0.8,0.2,1.1,0l11.2-6.4c0.7-0.4,1.1-1.2,1.1-2v-13.6
		c0-0.8,0.4-1.6,1.1-2l4.7-2.7c0.4-0.2,0.7-0.3,1.1-0.3c0.4,0,0.8,0.1,1.1,0.3l4.7,2.7c0.7,0.4,1.1,1.2,1.1,2v13.6
		c0,0.8,0.4,1.6,1.1,2l11.1,6.4c0.3,0.2,0.8,0.2,1.1,0c0.3-0.2,0.6-0.6,0.6-1L209.3-226.9z M297.8-211.8c0,0.2-0.1,0.4-0.3,0.5
		l-6.4,3.7c-0.2,0.1-0.4,0.1-0.6,0l-6.4-3.7c-0.2-0.1-0.3-0.3-0.3-0.5v-7.4c0-0.2,0.1-0.4,0.3-0.5l6.4-3.7c0.2-0.1,0.4-0.1,0.6,0
		l6.4,3.7c0.2,0.1,0.3,0.3,0.3,0.5L297.8-211.8z M299.6-266.9c-0.4-0.2-0.8-0.2-1.1,0c-0.3,0.2-0.6,0.6-0.6,1v28.8
		c0,0.3-0.2,0.5-0.4,0.7c-0.2,0.1-0.5,0.1-0.8,0l-4.7-2.7c-0.7-0.4-1.6-0.4-2.3,0L271-228.3c-0.7,0.4-1.1,1.2-1.1,2v21.7
		c0,0.8,0.4,1.6,1.1,2l18.8,10.8c0.7,0.4,1.6,0.4,2.3,0l18.8-10.8c0.7-0.4,1.1-1.2,1.1-2v-54c0-0.8-0.4-1.6-1.2-2L299.6-266.9z
		 M362.1-219.4c0.7-0.4,1.1-1.2,1.1-2v-5.3c0-0.8-0.4-1.6-1.1-2l-18.6-10.8c-0.7-0.4-1.6-0.4-2.3,0l-18.8,10.8
		c-0.7,0.4-1.1,1.2-1.1,2v21.7c0,0.8,0.4,1.6,1.1,2l18.6,10.6c0.7,0.4,1.5,0.4,2.2,0l11.3-6.3c0.4-0.2,0.6-0.6,0.6-1s-0.2-0.8-0.6-1
		l-18.9-10.8c-0.4-0.2-0.6-0.6-0.6-1v-6.8c0-0.4,0.2-0.8,0.6-1l5.9-3.4c0.3-0.2,0.8-0.2,1.1,0l5.9,3.4c0.3,0.2,0.6,0.6,0.6,1v5.3
		c0,0.4,0.2,0.8,0.6,1c0.3,0.2,0.8,0.2,1.1,0L362.1-219.4z"/>
	<path class="st6" d="M342-220.4c0.1-0.1,0.3-0.1,0.4,0l3.6,2.1c0.1,0.1,0.2,0.2,0.2,0.4v4.2c0,0.2-0.1,0.3-0.2,0.4l-3.6,2.1
		c-0.1,0.1-0.3,0.1-0.4,0l-3.6-2.1c-0.1-0.1-0.2-0.2-0.2-0.4v-4.2c0-0.2,0.1-0.3,0.2-0.4L342-220.4z"/>
	<g>
		<defs>
			<path id="SVGID_10_" d="M238.4-239.3l-18.7,10.8c-0.7,0.4-1.1,1.1-1.1,2v21.6c0,0.8,0.4,1.5,1.1,2l18.7,10.8
				c0.7,0.4,1.6,0.4,2.3,0l18.7-10.8c0.7-0.4,1.1-1.1,1.1-2v-21.6c0-0.8-0.4-1.5-1.1-2l-18.7-10.8c-0.3-0.2-0.7-0.3-1.1-0.3
				C239.2-239.6,238.8-239.5,238.4-239.3"/>
		</defs>
		<clipPath id="SVGID_11_">
			<use xlink:href="#SVGID_10_"  style="overflow:visible;"/>
		</clipPath>
		<g transform="translate(-78.306 -164.016)" class="st14">
			
				<linearGradient id="SVGID_12_" gradientUnits="userSpaceOnUse" x1="-22.301" y1="565.3051" x2="-21.7698" y2="565.3051" gradientTransform="matrix(-50.7531 103.536 103.536 50.7531 -59329.9141 -26461.2559)">
				<stop  offset="0.3" style="stop-color:#3E863D"/>
				<stop  offset="0.5" style="stop-color:#55934F"/>
				<stop  offset="0.8" style="stop-color:#5AAD45"/>
			</linearGradient>
			<path class="st15" d="M357.6-66.3l-52.6-25.8l-27,55l52.6,25.8L357.6-66.3z"/>
		</g>
	</g>
	<g>
		<defs>
			<path id="SVGID_13_" d="M219.1-203.6c0.2,0.2,0.4,0.4,0.7,0.6l16,9.2l2.7,1.5c0.4,0.2,0.9,0.3,1.3,0.3c0.1,0,0.3,0,0.4-0.1
				l19.7-36c-0.2-0.2-0.3-0.3-0.5-0.4l-12.2-7.1l-6.5-3.7c-0.2-0.1-0.4-0.2-0.6-0.2L219.1-203.6z"/>
		</defs>
		<clipPath id="SVGID_14_">
			<use xlink:href="#SVGID_13_"  style="overflow:visible;"/>
		</clipPath>
		<g transform="translate(-78.306 -164.016)" class="st16">
			
				<linearGradient id="SVGID_15_" gradientUnits="userSpaceOnUse" x1="-19.6797" y1="565.3931" x2="-19.3349" y2="565.3931" gradientTransform="matrix(142.4074 -105.2221 -105.2221 -142.4074 62587.6406 78411.8281)">
				<stop  offset="0.57" style="stop-color:#3E863D"/>
				<stop  offset="0.72" style="stop-color:#619857"/>
				<stop  offset="1" style="stop-color:#76AC64"/>
			</linearGradient>
			<path class="st17" d="M274.7-58.7l37.1,50.3l49.1-36.3L323.8-95L274.7-58.7z"/>
		</g>
	</g>
	<g>
		<defs>
			<path id="SVGID_16_" d="M239.3-239.6c-0.3,0-0.6,0.1-0.9,0.3l-18.6,10.7l20.1,36.5c0.3,0,0.6-0.1,0.8-0.3l18.7-10.8
				c0.6-0.3,1-0.9,1.1-1.5L240-239.5c-0.2,0-0.3,0-0.5,0C239.5-239.6,239.4-239.6,239.3-239.6"/>
		</defs>
		<clipPath id="SVGID_17_">
			<use xlink:href="#SVGID_16_"  style="overflow:visible;"/>
		</clipPath>
		<g transform="translate(-78.306 -164.016)" class="st18">
			
				<linearGradient id="SVGID_18_" gradientUnits="userSpaceOnUse" x1="-19.4152" y1="566.3322" x2="-19.1026" y2="566.3322" gradientTransform="matrix(129.8891 0 0 -129.8891 2819.9729 73508.6172)">
				<stop  offset="0.16" style="stop-color:#6BBF47"/>
				<stop  offset="0.38" style="stop-color:#79B461"/>
				<stop  offset="0.47" style="stop-color:#75AC64"/>
				<stop  offset="0.7" style="stop-color:#659E5A"/>
				<stop  offset="0.9" style="stop-color:#3E863D"/>
			</linearGradient>
			<path class="st19" d="M298.1-75.6V-28h40.6v-47.6L298.1-75.6z"/>
		</g>
	</g>
</g>
<g>
	<path class="st20" d="M0,1h199v199H0V1z"/>
	<path d="M52.3,167.3l15.2-9.2c2.9,5.2,5.6,9.6,12,9.6c6.1,0,10-2.4,10-11.8V92.4h18.7v63.8c0,19.4-11.4,28.2-27.9,28.2
		C65.4,184.4,56.7,176.6,52.3,167.3"/>
	<path d="M118.5,165.3l15.2-8.8c4,6.5,9.2,11.4,18.4,11.4c7.7,0,12.7-3.9,12.7-9.2c0-6.4-5.1-8.7-13.6-12.4l-4.7-2
		c-13.5-5.7-22.4-13-22.4-28.2c0-14,10.7-24.7,27.4-24.7c11.9,0,20.4,4.1,26.6,15l-14.6,9.4c-3.2-5.7-6.7-8-12-8c-5.5,0-9,3.5-9,8
		c0,5.6,3.5,7.9,11.5,11.4l4.7,2c15.9,6.8,24.8,13.8,24.8,29.4c0,16.8-13.2,26-31,26C135.1,184.4,123.9,176.1,118.5,165.3"/>
</g>
<g>
	<path class="st2" d="M426,230.6c0,22,21.5,42.6,55.4,54.2c-6.8,34.1-1.2,61.5,17.3,72.2c19.1,11,47.5,3.4,74.5-20.2
		c26.3,22.6,52.9,31.5,71.4,20.8c19.1-11,24.9-40.4,17.9-75.5c35.3-11.7,55.1-29.2,55.1-51.5c0-21.5-21.5-40.1-55-51.6
		c7.5-36.6,1.1-63.4-18.2-74.5c-18.6-10.7-45.5-1.4-72.2,21.8c-27.8-24.6-54.4-32.2-73.7-21c-18.6,10.8-23.9,38.7-17.1,73.4
		C448.6,190.1,426,209.2,426,230.6z"/>
	<path class="st21" d="M655.5,190.4c-2.8-0.9-5.5-1.8-8.3-2.6c0.5-1.9,0.9-3.8,1.3-5.7c6.3-30.6,2.2-55.3-11.9-63.4
		c-13.5-7.8-35.6,0.3-57.9,19.7c-2.2,1.9-4.3,3.9-6.4,5.9c-1.4-1.3-2.8-2.7-4.3-4c-23.4-20.8-46.8-29.5-60.9-21.4
		c-13.5,7.8-17.5,31-11.8,60c0.6,2.9,1.2,5.7,1.9,8.6c-3.3,0.9-6.5,1.9-9.6,3c-27.4,9.6-44.9,24.5-44.9,40.1
		c0,16,18.8,32.1,47.3,41.9c2.3,0.8,4.6,1.5,7,2.2c-0.8,3.1-1.4,6.1-2,9.2c-5.4,28.5-1.2,51.2,12.3,58.9c13.9,8,37.2-0.2,59.9-20.1
		c1.8-1.6,3.6-3.2,5.4-5c2.3,2.2,4.6,4.3,7,6.4c22,18.9,43.7,26.6,57.2,18.8c13.9-8,18.4-32.4,12.5-62c-0.4-2.3-1-4.6-1.6-6.9
		c1.6-0.5,3.2-1,4.8-1.5c29.7-9.8,49-25.7,49-42C701.5,215.1,683.4,200,655.5,190.4L655.5,190.4z"/>
	<path class="st2" d="M649,262.2c-1.4,0.5-2.9,0.9-4.3,1.4c-3.3-10.4-7.7-21.4-13.1-32.8c5.2-11.1,9.4-22,12.6-32.3
		c2.6,0.8,5.2,1.6,7.7,2.4c24,8.2,38.6,20.4,38.6,29.8C690.4,240.7,674.7,253.7,649,262.2L649,262.2z M638.4,283.3
		c2.6,13.1,3,24.9,1.2,34.2c-1.5,8.3-4.6,13.9-8.5,16.1c-8.2,4.7-25.6-1.4-44.4-17.6c-2.2-1.9-4.3-3.8-6.5-5.9
		c7.3-8,14.6-17.3,21.7-27.6c12.5-1.1,24.3-2.9,35.1-5.4C637.5,279.1,638,281.2,638.4,283.3L638.4,283.3z M530.9,332.7
		c-8,2.8-14.3,2.9-18.2,0.7c-8.2-4.7-11.6-22.9-6.9-47.3c0.6-2.9,1.2-5.7,1.9-8.6c10.6,2.3,22.3,4,34.9,5.1
		c7.2,10.1,14.7,19.3,22.2,27.5c-1.6,1.6-3.3,3.1-4.9,4.5C549.8,323.3,539.7,329.6,530.9,332.7L530.9,332.7z M493.5,262.1
		c-12.6-4.3-23.1-9.9-30.2-16c-6.4-5.5-9.7-11-9.7-15.4c0-9.4,14.1-21.5,37.5-29.6c2.9-1,5.9-2,8.9-2.8c3.2,10.5,7.5,21.6,12.6,32.7
		c-5.2,11.3-9.5,22.5-12.8,33.2C497.8,263.5,495.6,262.9,493.5,262.1z M506,176.9c-4.9-24.9-1.6-43.6,6.5-48.3
		c8.7-5,27.8,2.1,48,20.1c1.3,1.1,2.6,2.3,3.9,3.6c-7.5,8.1-15,17.3-22.1,27.3c-12.2,1.1-23.8,2.9-34.6,5.4
		C507.1,182.2,506.6,179.6,506,176.9L506,176.9z M617.7,204.5c-2.5-4.4-5.2-8.7-7.9-12.9c8.3,1,16.2,2.4,23.6,4.1
		c-2.2,7.2-5,14.6-8.3,22.3C622.8,213.4,620.3,208.9,617.7,204.5L617.7,204.5z M572.2,160.1c5.1,5.5,10.2,11.7,15.2,18.4
		c-10.2-0.5-20.4-0.5-30.6,0C561.8,171.9,567,165.7,572.2,160.1L572.2,160.1z M526.3,204.6c-2.5,4.4-5,8.9-7.3,13.4
		c-3.2-7.6-6-15.2-8.2-22.4c7.4-1.7,15.3-3,23.5-4C531.5,195.8,528.9,200.2,526.3,204.6z M534.5,270.7c-8.5-0.9-16.5-2.2-23.9-3.8
		c2.3-7.4,5.1-15.1,8.4-22.9c2.3,4.5,4.8,9,7.3,13.4C529,261.9,531.7,266.3,534.5,270.7z M572.5,302c-5.2-5.7-10.5-11.9-15.6-18.6
		c5,0.2,10,0.3,15.1,0.3c5.3,0,10.5-0.1,15.6-0.3C582.6,290.2,577.5,296.5,572.5,302z M625.3,243.6c3.5,7.9,6.4,15.5,8.7,22.8
		c-7.5,1.7-15.6,3.1-24.2,4.1c2.7-4.3,5.4-8.7,7.9-13.2C620.4,252.8,622.9,248.2,625.3,243.6L625.3,243.6z M608.2,251.8
		c-3.9,6.8-8.1,13.5-12.4,20c-7.7,0.5-15.6,0.8-23.7,0.8c-8.1,0-15.9-0.3-23.4-0.7c-4.5-6.5-8.7-13.2-12.7-20.1
		c-3.9-6.8-7.6-13.8-11-20.9c3.4-7.1,7.1-14.1,11-20.9v0c3.9-6.8,8.1-13.5,12.6-20c7.7-0.6,15.6-0.9,23.6-0.9c8,0,15.9,0.3,23.6,0.9
		c4.4,6.5,8.6,13.1,12.5,19.9c3.9,6.8,7.7,13.7,11.2,20.8C615.8,237.9,612.1,244.9,608.2,251.8L608.2,251.8z M631,128.2
		c8.7,5,12,25.2,6.6,51.6c-0.4,1.7-0.7,3.4-1.2,5.1c-10.7-2.5-22.4-4.3-34.6-5.5c-7.1-10.1-14.5-19.3-21.9-27.3
		c1.9-1.9,3.9-3.7,6-5.5C605,130.1,622.9,123.6,631,128.2L631,128.2z"/>
	<path class="st21" d="M572,207.6c12.8,0,23.1,10.4,23.1,23.1c0,12.8-10.4,23.1-23.1,23.1c-12.8,0-23.1-10.4-23.1-23.1
		C548.9,217.9,559.3,207.6,572,207.6"/>
</g>
</svg>
