<?xml version="1.0" encoding="utf-8"?>
<!-- Generator: Adobe Illustrator 22.0.1, SVG Export Plug-In . SVG Version: 6.00 Build 0)  -->
<svg version="1.1" id="Layer_1" xmlns="http://www.w3.org/2000/svg" xmlns:xlink="http://www.w3.org/1999/xlink" x="0px" y="0px"
	 viewBox="0 0 200 58.6" style="enable-background:new 0 0 200 58.6;" xml:space="preserve">
<style type="text/css">
	.st0{fill:#8E714E;}
	.st1{fill:#442D22;}
	.st2{fill:#FFFFFF;}
	.st3{fill:#A6A385;}
	.st4{fill:#499D4A;}
	.st5{fill:#58AA50;}
	.st6{fill:#689F63;}
	.st7{fill:#333333;}
	.st8{clip-path:url(#SVGID_2_);}
	.st9{fill:url(#SVGID_3_);}
	.st10{clip-path:url(#SVGID_5_);}
	.st11{fill:url(#SVGID_6_);}
	.st12{clip-path:url(#SVGID_8_);}
	.st13{fill:url(#SVGID_9_);}
	.st14{clip-path:url(#SVGID_11_);}
	.st15{fill:url(#SVGID_12_);}
	.st16{clip-path:url(#SVGID_14_);}
	.st17{fill:url(#SVGID_15_);}
	.st18{clip-path:url(#SVGID_17_);}
	.st19{fill:url(#SVGID_18_);}
	.st20{fill:#F7DF1E;}
	.st21{fill:#53C1DE;}
	.st22{fill:#61DAFB;}
</style>
<g>
	<path class="st0" d="M185.6,25.3c-0.2,0-0.4,0.4-0.4,0.6c0,1.4-0.1,5.2-0.1,7.8c0,0.1,0.1,0.2,0.2,0.2c0.5,0,1.8,0.1,2.9,0.1
		c1.5,0,2.4-0.2,2.9-0.4c1.3-0.6,1.9-2,1.9-3.6c0-3.5-2.4-4.8-6-4.8C186.9,25.2,186.2,25.2,185.6,25.3L185.6,25.3z M194.8,41.2
		c0-3.5-2.6-5.5-7.3-5.5c-0.2,0-1.7,0-2.1,0c-0.1,0-0.2,0.1-0.2,0.2c0,2.5,0,6.5,0.1,8.1c0.1,0.7,0.6,1.6,1.2,1.9
		c0.6,0.4,2.1,0.4,3.1,0.4C192.4,46.4,194.8,44.9,194.8,41.2L194.8,41.2z M178.4,23.3c0.4,0,1.4,0.1,4.2,0.1c2.6,0,4.7-0.1,7.2-0.1
		c3.1,0,7.4,1.1,7.4,5.7c0,2.3-1.6,4.1-3.7,5c-0.1,0-0.1,0.1,0,0.1c3,0.7,5.6,2.6,5.6,6.1c0,3.4-2.1,5.6-5.2,6.9
		c-1.9,0.8-4.2,1.1-6.6,1.1c-1.8,0-6.7-0.2-9.4-0.1c-0.3-0.1,0.2-1.4,0.5-1.6c0.6,0,1.1-0.1,1.8-0.3c1-0.2,1.1-0.5,1.2-2
		c0.1-1.2,0.1-5.7,0.1-8.8c0-4.3,0-7.2,0-8.6c0-1.1-0.4-1.5-1.2-1.7c-0.6-0.1-1.6-0.2-2.4-0.4C177.6,24.7,178.2,23.5,178.4,23.3
		L178.4,23.3z M157.8,45.5c0.9,0.7,2.5,1,4,1c1.9,0,3.8-0.4,5.7-2c1.9-1.7,3.2-4.3,3.2-8.5c0-4-1.5-7.3-4.7-9.2
		c-1.8-1.1-4.1-1.6-6.7-1.6c-0.8,0-1.5,0-2,0.2c-0.1,0.1-0.4,0.4-0.4,0.6c-0.1,0.7-0.1,6.2-0.1,9.4c0,3.3,0,7.9,0.1,8.5
		C157.1,44.3,157.3,45.1,157.8,45.5L157.8,45.5z M149.8,23.3c0.7,0,3.3,0.1,4.5,0.1c2.2,0,3.8-0.1,8.1-0.1c3.6,0,6.5,1,8.7,2.8
		c2.6,2.2,4,5.3,4,9.1c0,5.4-2.5,8.5-4.9,10.3c-2.5,1.8-5.7,2.9-10.2,2.9c-2.4,0-6.6-0.1-10-0.1h0c-0.2-0.3,0.3-1.6,0.6-1.6
		c0.9-0.1,1.2-0.1,1.6-0.3c0.7-0.3,0.9-0.7,1-2c0.1-2.5,0.1-5.4,0.1-8.8c0-2.4,0-7,0-8.5c-0.1-1.2-0.6-1.6-1.7-1.8
		c-0.5-0.1-1.2-0.2-2.2-0.4C148.9,24.7,149.6,23.6,149.8,23.3L149.8,23.3z"/>
	<path class="st1" d="M106.7,46.9c-0.9-0.1-1.5-0.2-2.3-0.6c-0.1-0.1-0.3-0.4-0.3-0.6c-0.1-1.2-0.1-4.8-0.1-7.2
		c0-1.9-0.3-3.6-1.1-4.8c-1-1.4-2.3-2.1-4.1-2.1c-1.6,0-3.7,1.1-5.4,2.6c0,0-0.3,0.3-0.3-0.1c0-0.4,0.1-1.2,0.1-1.7
		c0-0.5-0.2-0.7-0.2-0.7c-1.1,0.6-4.3,1.3-5.5,1.4c-0.9,0.2-1.1,1-0.2,1.3h0c1,0.3,1.6,0.6,2.1,0.9c0.4,0.3,0.3,0.7,0.3,1
		c0,2.7,0,6.8-0.1,9c0,0.9-0.3,1.2-0.9,1.4l0.1,0c-0.5,0.1-0.9,0.2-1.5,0.3c-0.2,0.2-0.2,1.4,0,1.6c0.4,0,2.5-0.1,4.2-0.1
		c2.3,0,3.6,0.1,4.2,0.1c0.2-0.3,0.3-1.4,0.2-1.6c-0.7,0-1.2-0.1-1.6-0.2c-0.6-0.1-0.8-0.5-0.9-1.2c-0.1-1.9-0.1-5.9-0.1-8.6
		c0-0.7,0.2-1.1,0.4-1.3c0.8-0.7,2.1-1.2,3.3-1.2c1.1,0,1.9,0.4,2.5,0.8c0.8,0.6,1,1.6,1.1,2.2c0.2,1.5,0.1,4.6,0.1,7.2
		c0,1.4-0.1,1.8-0.6,2c-0.2,0.1-0.9,0.2-1.6,0.3c-0.2,0.2-0.2,1.4,0,1.6c1,0,2.2-0.1,4-0.1c2.2,0,3.6,0.1,4.2,0.1
		C106.8,48.2,106.8,47.2,106.7,46.9L106.7,46.9z M116.5,33.3c-1.9,0-3.1,1.5-3.1,3.7c0,2.3,1,5,4,5c0.5,0,1.4-0.2,1.9-0.7
		c0.7-0.6,1.1-1.9,1.1-3.3C120.4,35.1,119,33.3,116.5,33.3L116.5,33.3z M116.3,49c-0.7,0-1.2,0.2-1.5,0.4c-1.5,1-2.2,1.9-2.2,3
		c0,1,0.4,1.9,1.2,2.6c1,0.9,2.5,1.3,4.3,1.3c3.6,0,5.2-2,5.2-3.9c0-1.4-0.7-2.2-2.1-2.7C120.3,49.2,118.5,49,116.3,49L116.3,49z
		 M116.5,58.3c-2.2,0-3.7-0.5-5.1-1.5c-1.3-1-1.9-2.5-1.9-3.5c0-0.3,0.1-1.1,0.7-1.8c0.4-0.4,1.2-1.2,3.3-2.6c0.1,0,0.1-0.1,0.1-0.1
		c0-0.1-0.1-0.1-0.1-0.2c-1.7-0.6-2.2-1.7-2.3-2.2v-0.1c0-0.2-0.1-0.4,0.2-0.6c0.2-0.2,0.6-0.4,1-0.6c0.6-0.4,1.2-0.7,1.6-1.1
		c0.1-0.1,0.1-0.1,0.1-0.2s-0.1-0.1-0.1-0.2c-2.5-0.8-3.7-2.7-3.7-5.4c0-1.8,0.8-3.5,2.3-4.5c1-0.8,3.5-1.7,5.1-1.7h0.1
		c1.7,0,2.6,0.4,3.9,0.9c0.7,0.2,1.4,0.4,2.3,0.4c1.4,0,2-0.4,2.5-0.9c0,0.1,0.1,0.2,0.1,0.7c0,0.5-0.1,1.1-0.5,1.6
		c-0.3,0.4-0.9,0.7-1.6,0.7h-0.2c-0.6-0.1-0.9-0.1-0.9-0.1l-0.1,0.1c0,0.1,0,0.1,0,0.2l0,0.1c0.1,0.3,0.2,1.3,0.2,1.5
		c0,2.9-1.2,4.2-2.4,5.2c-1.2,0.9-2.6,1.5-4.2,1.6c0,0-0.2,0-0.5,0c-0.2,0-0.4,0-0.5,0h0c-0.3,0.1-1,0.4-1,1c0,0.5,0.3,1.2,1.9,1.3
		c0.3,0,0.6,0,1,0.1c2,0.1,4.6,0.3,5.7,0.7c1.6,0.6,2.7,2.1,2.7,3.8c0,2.6-1.9,5.1-5,6.6C119.7,57.9,118.2,58.3,116.5,58.3
		L116.5,58.3z M136.8,33.5c-0.7,0-1.4,0.2-1.9,0.5c-1.4,0.9-2.1,2.6-2.1,5.1c0,4.7,2.3,7.9,5.7,7.9c1,0,1.8-0.3,2.5-0.9
		c1-0.9,1.6-2.6,1.6-4.9C142.5,36.6,140.2,33.5,136.8,33.5L136.8,33.5z M137.5,48.7c-6.1,0-8.2-4.4-8.2-8.6c0-2.9,1.2-5.2,3.5-6.8
		c1.7-1,3.7-1.6,5.4-1.6c4.6,0,7.9,3.3,7.9,8.1c0,3.2-1.3,5.8-3.7,7.4C141.2,47.9,139.1,48.7,137.5,48.7L137.5,48.7L137.5,48.7z
		 M74,33.5c-0.7,0-1.4,0.2-1.9,0.5C70.7,34.8,70,36.6,70,39c0,4.7,2.3,7.9,5.7,7.9c1,0,1.8-0.3,2.5-0.9c1-0.9,1.6-2.6,1.6-4.9
		C79.7,36.6,77.5,33.5,74,33.5L74,33.5z M74.7,48.7c-6.1,0-8.2-4.4-8.2-8.6c0-2.9,1.2-5.2,3.5-6.8c1.7-1,3.7-1.6,5.4-1.6
		c4.6,0,7.9,3.3,7.9,8.1c0,3.2-1.3,5.8-3.7,7.4C78.4,47.9,76.4,48.7,74.7,48.7L74.7,48.7z M34,48.3c-0.1-0.1-0.1-0.4-0.1-0.8
		c0-0.3,0.1-0.5,0.1-0.5c0.7-0.1,1.1-0.2,1.6-0.3c0.7-0.2,1-0.6,1-1.5c0.1-2.1,0.1-6.2,0.1-9v-0.1c0-0.3,0-0.7-0.4-1
		c-0.6-0.4-1.2-0.7-2.1-0.9c-0.3-0.1-0.5-0.3-0.5-0.5c0-0.2,0.2-0.5,0.7-0.5c1.2-0.1,4.2-0.9,5.4-1.4c0.1,0.1,0.2,0.3,0.2,0.6l0,0.4
		c0,0.4-0.1,0.9-0.1,1.3c0,0.1,0.1,0.2,0.3,0.2c0.1,0,0.1,0,0.2-0.1c2.3-1.8,4.3-2.4,5.4-2.4c1.7,0,3.1,0.8,4.1,2.5
		c0.1,0.1,0.1,0.1,0.2,0.1c0.1,0,0.2,0,0.2-0.1c2.1-1.6,4.2-2.6,5.6-2.6c3.3,0,5.3,2.5,5.3,6.6c0,1.2,0,2.7,0,4.1c0,1.2,0,2.4,0,3.2
		c0,0.2,0.2,0.7,0.6,0.9c0.5,0.2,1.2,0.4,2.1,0.5h0c0.1,0.2-0.1,1.2-0.2,1.4c-0.2,0-0.5,0-0.9,0c-0.9,0-1.8-0.1-2.7-0.1
		c-2.2,0-3.3,0-4.4,0.1c-0.1-0.3-0.1-1.1,0-1.4c0.6-0.1,1-0.2,1.4-0.3c0.7-0.2,0.9-0.5,0.9-1.5c0-0.7,0.1-6.4-0.1-7.8
		c-0.2-1.4-1.3-3.1-3.6-3.1c-0.9,0-2.3,0.4-3.6,1.4c-0.1,0.1-0.1,0.2-0.1,0.4v0c0.1,0.7,0.1,1.6,0.1,2.9v2.3c0,1.6,0,3.1,0,4.2
		c0,0.8,0.5,1,0.9,1.1c0.2,0,0.4,0.1,0.5,0.1c0.3,0.1,0.6,0.1,1.1,0.2c0.1,0.1,0.1,0.6,0,1c0,0.2-0.1,0.3-0.1,0.4
		c-1.2,0-2.5-0.1-4.3-0.1c-0.5,0-1.5,0-2.2,0c-0.6,0-1.2,0-1.6,0c0-0.1-0.1-0.3-0.1-0.7c0-0.3,0.1-0.6,0.1-0.6
		c0.2,0,0.3-0.1,0.5-0.1c0.4-0.1,0.8-0.1,1.1-0.2c0.6-0.2,0.8-0.5,0.9-1.3c0.1-1.8,0.2-6.9,0-8.2c-0.4-2.1-1.6-3.1-3.5-3.1
		c-1.1,0-2.5,0.5-3.6,1.4c-0.2,0.1-0.3,0.5-0.3,0.8v2.1c0,2.6,0,5.8,0,7.2c0,0.4,0.2,0.9,1,1.1c0.2,0,0.5,0.1,0.8,0.1l0.6,0.1
		c0.1,0.2,0,1.1-0.1,1.4c-0.4,0-0.8,0-1.3,0c-0.7,0-1.7-0.1-2.8-0.1c-1.2,0-2.1,0-2.8,0.1C34.8,48.3,34.4,48.3,34,48.3L34,48.3z"/>
	<path class="st2" d="M15.3,56.9l-1.5-0.5c0,0,0.2-7.4-2.5-8c-1.8-2.1,0.3-87.6,6.7-0.3c0,0-2.2,1.1-2.6,3
		C15,53,15.3,56.9,15.3,56.9L15.3,56.9z"/>
	<path class="st3" d="M15.3,56.9l-1.5-0.5c0,0,0.2-7.4-2.5-8c-1.8-2.1,0.3-87.6,6.7-0.3c0,0-2.2,1.1-2.6,3
		C15,53,15.3,56.9,15.3,56.9L15.3,56.9z"/>
	<path class="st2" d="M16.1,49.7c0,0,12.8-8.4,9.8-25.9C23,11.1,16.2,6.9,15.4,5.3c-0.8-1.1-1.6-3.1-1.6-3.1l0.5,35.3
		C14.3,37.6,13.2,48.4,16.1,49.7"/>
	<path class="st4" d="M16.1,49.7c0,0,12.8-8.4,9.8-25.9C23,11.1,16.2,6.9,15.4,5.3c-0.8-1.1-1.6-3.1-1.6-3.1l0.5,35.3
		C14.3,37.6,13.2,48.4,16.1,49.7"/>
	<path class="st2" d="M13.1,50.1c0,0-12-8.2-11.3-22.6C2.5,13.1,10.9,6,12.6,4.8c1.1-1.1,1.1-1.6,1.2-2.7c0.7,1.6,0.6,24,0.7,26.6
		C14.8,38.8,13.9,48.2,13.1,50.1z"/>
	<path class="st5" d="M13.1,50.1c0,0-12-8.2-11.3-22.6C2.5,13.1,10.9,6,12.6,4.8c1.1-1.1,1.1-1.6,1.2-2.7c0.7,1.6,0.6,24,0.7,26.6
		C14.8,38.8,13.9,48.2,13.1,50.1z"/>
</g>
<g>
	<path class="st6" d="M-95.9-172.9c-0.6,0-1.3-0.2-1.9-0.5l-5.9-3.5c-0.9-0.5-0.5-0.7-0.2-0.8c1.2-0.4,1.4-0.5,2.7-1.2
		c0.1-0.1,0.3,0,0.4,0l4.5,2.7c0.2,0.1,0.4,0.1,0.5,0l17.7-10.2c0.2-0.1,0.3-0.3,0.3-0.5v-20.4c0-0.2-0.1-0.4-0.3-0.5L-95.6-218
		c-0.2-0.1-0.4-0.1-0.5,0l-17.7,10.2c-0.2,0.1-0.3,0.3-0.3,0.5v20.4c0,0.2,0.1,0.4,0.3,0.5l4.8,2.8c2.6,1.3,4.2-0.2,4.2-1.8v-20.2
		c0-0.3,0.2-0.5,0.5-0.5h2.2c0.3,0,0.5,0.2,0.5,0.5v20.2c0,3.5-1.9,5.5-5.2,5.5c-1,0-1.8,0-4.1-1.1l-4.6-2.7
		c-1.1-0.7-1.9-1.9-1.9-3.2v-20.4c0-1.3,0.7-2.6,1.9-3.2l17.7-10.2c1.1-0.6,2.6-0.6,3.7,0l17.7,10.2c1.1,0.7,1.9,1.9,1.9,3.2v20.4
		c0,1.3-0.7,2.6-1.9,3.2L-94-173.4C-94.6-173.1-95.2-173-95.9-172.9"/>
	<path class="st6" d="M-90.4-187c-7.7,0-9.4-3.6-9.4-6.5c0-0.3,0.2-0.5,0.5-0.5h2.3c0.3,0,0.5,0.2,0.5,0.4c0.3,2.3,1.4,3.5,6.1,3.5
		c3.7,0,5.3-0.8,5.3-2.8c0-1.1-0.5-2-6.2-2.6c-4.8-0.5-7.8-1.5-7.8-5.4c0-3.6,3-5.7,8.1-5.7c5.7,0,8.5,2,8.8,6.2
		c0,0.1,0,0.3-0.1,0.4c-0.1,0.1-0.2,0.2-0.4,0.2h-2.3c-0.2,0-0.4-0.2-0.5-0.4c-0.6-2.4-1.9-3.2-5.5-3.2c-4.1,0-4.5,1.4-4.5,2.5
		c0,1.3,0.6,1.7,6.1,2.4c5.4,0.7,8,1.7,8,5.6C-81.6-189.2-84.9-187-90.4-187 M-68.9-208.6h0.6c0.5,0,0.6-0.3,0.6-0.5
		c0-0.5-0.4-0.5-0.6-0.5h-0.6L-68.9-208.6z M-69.6-210.3h1.3c0.5,0,1.3,0,1.3,1c0,0.7-0.5,0.9-0.7,0.9c0.5,0,0.6,0.4,0.6,0.9
		c0,0.3,0.1,0.8,0.2,1h-0.8c0-0.2-0.1-1.2-0.1-1.2c-0.1-0.2-0.1-0.3-0.4-0.3h-0.7v1.5h-0.7V-210.3z M-71.2-208.4
		c0,1.6,1.3,2.9,2.9,2.9c1.6,0,2.9-1.3,2.9-2.9c0-1.6-1.3-2.9-2.9-2.9C-69.9-211.3-71.2-210-71.2-208.4 M-64.9-208.4
		c0,1.9-1.5,3.4-3.4,3.4c-1.9,0-3.4-1.5-3.4-3.4c0-1.9,1.6-3.4,3.4-3.4C-66.5-211.8-64.9-210.3-64.9-208.4"/>
	<path class="st7" d="M-150.7-252.8c0-0.8-0.4-1.6-1.1-2l-18.8-10.8c-0.3-0.2-0.7-0.3-1-0.3h-0.2c-0.4,0-0.7,0.1-1,0.3l-18.8,10.8
		c-0.7,0.4-1.1,1.2-1.1,2l0,29.1c0,0.4,0.2,0.8,0.6,1c0.3,0.2,0.8,0.2,1.1,0l11.2-6.4c0.7-0.4,1.1-1.2,1.1-2v-13.6
		c0-0.8,0.4-1.6,1.1-2l4.7-2.7c0.4-0.2,0.7-0.3,1.1-0.3c0.4,0,0.8,0.1,1.1,0.3l4.7,2.7c0.7,0.4,1.1,1.2,1.1,2v13.6
		c0,0.8,0.4,1.6,1.1,2l11.1,6.4c0.3,0.2,0.8,0.2,1.1,0c0.3-0.2,0.6-0.6,0.6-1L-150.7-252.8z M-62.2-237.7c0,0.2-0.1,0.4-0.3,0.5
		l-6.4,3.7c-0.2,0.1-0.4,0.1-0.6,0l-6.4-3.7c-0.2-0.1-0.3-0.3-0.3-0.5v-7.4c0-0.2,0.1-0.4,0.3-0.5l6.4-3.7c0.2-0.1,0.4-0.1,0.6,0
		l6.4,3.7c0.2,0.1,0.3,0.3,0.3,0.5L-62.2-237.7z M-60.4-292.8c-0.4-0.2-0.8-0.2-1.1,0c-0.3,0.2-0.6,0.6-0.6,1v28.8
		c0,0.3-0.2,0.5-0.4,0.7c-0.2,0.1-0.5,0.1-0.8,0L-68-265c-0.7-0.4-1.6-0.4-2.3,0L-89-254.2c-0.7,0.4-1.1,1.2-1.1,2v21.7
		c0,0.8,0.4,1.6,1.1,2l18.8,10.8c0.7,0.4,1.6,0.4,2.3,0l18.8-10.8c0.7-0.4,1.1-1.2,1.1-2v-54c0-0.8-0.4-1.6-1.2-2L-60.4-292.8z
		 M2.1-245.3c0.7-0.4,1.1-1.2,1.1-2v-5.3c0-0.8-0.4-1.6-1.1-2l-18.6-10.8c-0.7-0.4-1.6-0.4-2.3,0l-18.8,10.8c-0.7,0.4-1.1,1.2-1.1,2
		v21.7c0,0.8,0.4,1.6,1.1,2l18.6,10.6c0.7,0.4,1.5,0.4,2.2,0l11.3-6.3c0.4-0.2,0.6-0.6,0.6-1s-0.2-0.8-0.6-1l-18.9-10.8
		c-0.4-0.2-0.6-0.6-0.6-1v-6.8c0-0.4,0.2-0.8,0.6-1l5.9-3.4c0.3-0.2,0.8-0.2,1.1,0l5.9,3.4c0.3,0.2,0.6,0.6,0.6,1v5.3
		c0,0.4,0.2,0.8,0.6,1c0.3,0.2,0.8,0.2,1.1,0L2.1-245.3z"/>
	<path class="st6" d="M-18-246.3c0.1-0.1,0.3-0.1,0.4,0l3.6,2.1c0.1,0.1,0.2,0.2,0.2,0.4v4.2c0,0.2-0.1,0.3-0.2,0.4l-3.6,2.1
		c-0.1,0.1-0.3,0.1-0.4,0l-3.6-2.1c-0.1-0.1-0.2-0.2-0.2-0.4v-4.2c0-0.2,0.1-0.3,0.2-0.4L-18-246.3z"/>
	<g>
		<defs>
			<path id="SVGID_1_" d="M-121.6-265.2l-18.7,10.8c-0.7,0.4-1.1,1.1-1.1,2v21.6c0,0.8,0.4,1.5,1.1,2l18.7,10.8
				c0.7,0.4,1.6,0.4,2.3,0l18.7-10.8c0.7-0.4,1.1-1.1,1.1-2v-21.6c0-0.8-0.4-1.5-1.1-2l-18.7-10.8c-0.3-0.2-0.7-0.3-1.1-0.3
				S-121.2-265.4-121.6-265.2"/>
		</defs>
		<clipPath id="SVGID_2_">
			<use xlink:href="#SVGID_1_"  style="overflow:visible;"/>
		</clipPath>
		<g transform="translate(-78.306 -164.016)" class="st8">
			
				<linearGradient id="SVGID_3_" gradientUnits="userSpaceOnUse" x1="-20.6698" y1="503.6866" x2="-20.1386" y2="503.6866" gradientTransform="matrix(-50.7531 103.536 103.536 50.7531 -53227.3906 -23528.7539)">
				<stop  offset="0.3" style="stop-color:#3E863D"/>
				<stop  offset="0.5" style="stop-color:#55934F"/>
				<stop  offset="0.8" style="stop-color:#5AAD45"/>
			</linearGradient>
			<path class="st9" d="M-2.4-92.3L-54.9-118l-27,55l52.6,25.8L-2.4-92.3z"/>
		</g>
	</g>
	<g>
		<defs>
			<path id="SVGID_4_" d="M-140.9-229.6c0.2,0.2,0.4,0.4,0.7,0.6l16,9.2l2.7,1.5c0.4,0.2,0.9,0.3,1.3,0.3c0.1,0,0.3,0,0.4-0.1
				l19.7-36c-0.2-0.2-0.3-0.3-0.5-0.4l-12.2-7.1l-6.5-3.7c-0.2-0.1-0.4-0.2-0.6-0.2L-140.9-229.6z"/>
		</defs>
		<clipPath id="SVGID_5_">
			<use xlink:href="#SVGID_4_"  style="overflow:visible;"/>
		</clipPath>
		<g transform="translate(-78.306 -164.016)" class="st10">
			
				<linearGradient id="SVGID_6_" gradientUnits="userSpaceOnUse" x1="-21.4256" y1="507.5103" x2="-21.0809" y2="507.5103" gradientTransform="matrix(142.4074 -105.2221 -105.2221 -142.4074 56385.7344 69959.2422)">
				<stop  offset="0.57" style="stop-color:#3E863D"/>
				<stop  offset="0.72" style="stop-color:#619857"/>
				<stop  offset="1" style="stop-color:#76AC64"/>
			</linearGradient>
			<path class="st11" d="M-85.3-84.6l37.1,50.3L0.9-70.7l-37.1-50.2L-85.3-84.6z"/>
		</g>
	</g>
	<g>
		<defs>
			<path id="SVGID_7_" d="M-120.7-265.5c-0.3,0-0.6,0.1-0.9,0.3l-18.6,10.7l20.1,36.5c0.3,0,0.6-0.1,0.8-0.3l18.7-10.8
				c0.6-0.3,1-0.9,1.1-1.5l-20.5-34.9c-0.2,0-0.3,0-0.5,0C-120.5-265.5-120.6-265.5-120.7-265.5"/>
		</defs>
		<clipPath id="SVGID_8_">
			<use xlink:href="#SVGID_7_"  style="overflow:visible;"/>
		</clipPath>
		<g transform="translate(-78.306 -164.016)" class="st12">
			
				<linearGradient id="SVGID_9_" gradientUnits="userSpaceOnUse" x1="-22.1868" y1="507.1371" x2="-21.8742" y2="507.1371" gradientTransform="matrix(129.8891 0 0 -129.8891 2819.9729 65793.875)">
				<stop  offset="0.16" style="stop-color:#6BBF47"/>
				<stop  offset="0.38" style="stop-color:#79B461"/>
				<stop  offset="0.47" style="stop-color:#75AC64"/>
				<stop  offset="0.7" style="stop-color:#659E5A"/>
				<stop  offset="0.9" style="stop-color:#3E863D"/>
			</linearGradient>
			<path class="st13" d="M-61.9-101.5v47.6h40.6v-47.6L-61.9-101.5z"/>
		</g>
	</g>
	<path class="st6" d="M-95.9-172.9c-0.6,0-1.3-0.2-1.9-0.5l-5.9-3.5c-0.9-0.5-0.5-0.7-0.2-0.8c1.2-0.4,1.4-0.5,2.7-1.2
		c0.1-0.1,0.3,0,0.4,0l4.5,2.7c0.2,0.1,0.4,0.1,0.5,0l17.7-10.2c0.2-0.1,0.3-0.3,0.3-0.5v-20.4c0-0.2-0.1-0.4-0.3-0.5L-95.6-218
		c-0.2-0.1-0.4-0.1-0.5,0l-17.7,10.2c-0.2,0.1-0.3,0.3-0.3,0.5v20.4c0,0.2,0.1,0.4,0.3,0.5l4.8,2.8c2.6,1.3,4.2-0.2,4.2-1.8v-20.2
		c0-0.3,0.2-0.5,0.5-0.5h2.2c0.3,0,0.5,0.2,0.5,0.5v20.2c0,3.5-1.9,5.5-5.2,5.5c-1,0-1.8,0-4.1-1.1l-4.6-2.7
		c-1.1-0.7-1.9-1.9-1.9-3.2v-20.4c0-1.3,0.7-2.6,1.9-3.2l17.7-10.2c1.1-0.6,2.6-0.6,3.7,0l17.7,10.2c1.1,0.7,1.9,1.9,1.9,3.2v20.4
		c0,1.3-0.7,2.6-1.9,3.2L-94-173.4C-94.6-173.1-95.2-173-95.9-172.9"/>
	<path class="st6" d="M-90.4-187c-7.7,0-9.4-3.6-9.4-6.5c0-0.3,0.2-0.5,0.5-0.5h2.3c0.3,0,0.5,0.2,0.5,0.4c0.3,2.3,1.4,3.5,6.1,3.5
		c3.7,0,5.3-0.8,5.3-2.8c0-1.1-0.5-2-6.2-2.6c-4.8-0.5-7.8-1.5-7.8-5.4c0-3.6,3-5.7,8.1-5.7c5.7,0,8.5,2,8.8,6.2
		c0,0.1,0,0.3-0.1,0.4c-0.1,0.1-0.2,0.2-0.4,0.2h-2.3c-0.2,0-0.4-0.2-0.5-0.4c-0.6-2.4-1.9-3.2-5.5-3.2c-4.1,0-4.5,1.4-4.5,2.5
		c0,1.3,0.6,1.7,6.1,2.4c5.4,0.7,8,1.7,8,5.6C-81.6-189.2-84.9-187-90.4-187 M-68.9-208.6h0.6c0.5,0,0.6-0.3,0.6-0.5
		c0-0.5-0.4-0.5-0.6-0.5h-0.6L-68.9-208.6z M-69.6-210.3h1.3c0.5,0,1.3,0,1.3,1c0,0.7-0.5,0.9-0.7,0.9c0.5,0,0.6,0.4,0.6,0.9
		c0,0.3,0.1,0.8,0.2,1h-0.8c0-0.2-0.1-1.2-0.1-1.2c-0.1-0.2-0.1-0.3-0.4-0.3h-0.7v1.5h-0.7V-210.3z M-71.2-208.4
		c0,1.6,1.3,2.9,2.9,2.9c1.6,0,2.9-1.3,2.9-2.9c0-1.6-1.3-2.9-2.9-2.9C-69.9-211.3-71.2-210-71.2-208.4 M-64.9-208.4
		c0,1.9-1.5,3.4-3.4,3.4c-1.9,0-3.4-1.5-3.4-3.4c0-1.9,1.6-3.4,3.4-3.4C-66.5-211.8-64.9-210.3-64.9-208.4"/>
	<path class="st7" d="M-150.7-252.8c0-0.8-0.4-1.6-1.1-2l-18.8-10.8c-0.3-0.2-0.7-0.3-1-0.3h-0.2c-0.4,0-0.7,0.1-1,0.3l-18.8,10.8
		c-0.7,0.4-1.1,1.2-1.1,2l0,29.1c0,0.4,0.2,0.8,0.6,1c0.3,0.2,0.8,0.2,1.1,0l11.2-6.4c0.7-0.4,1.1-1.2,1.1-2v-13.6
		c0-0.8,0.4-1.6,1.1-2l4.7-2.7c0.4-0.2,0.7-0.3,1.1-0.3c0.4,0,0.8,0.1,1.1,0.3l4.7,2.7c0.7,0.4,1.1,1.2,1.1,2v13.6
		c0,0.8,0.4,1.6,1.1,2l11.1,6.4c0.3,0.2,0.8,0.2,1.1,0c0.3-0.2,0.6-0.6,0.6-1L-150.7-252.8z M-62.2-237.7c0,0.2-0.1,0.4-0.3,0.5
		l-6.4,3.7c-0.2,0.1-0.4,0.1-0.6,0l-6.4-3.7c-0.2-0.1-0.3-0.3-0.3-0.5v-7.4c0-0.2,0.1-0.4,0.3-0.5l6.4-3.7c0.2-0.1,0.4-0.1,0.6,0
		l6.4,3.7c0.2,0.1,0.3,0.3,0.3,0.5L-62.2-237.7z M-60.4-292.8c-0.4-0.2-0.8-0.2-1.1,0c-0.3,0.2-0.6,0.6-0.6,1v28.8
		c0,0.3-0.2,0.5-0.4,0.7c-0.2,0.1-0.5,0.1-0.8,0L-68-265c-0.7-0.4-1.6-0.4-2.3,0L-89-254.2c-0.7,0.4-1.1,1.2-1.1,2v21.7
		c0,0.8,0.4,1.6,1.1,2l18.8,10.8c0.7,0.4,1.6,0.4,2.3,0l18.8-10.8c0.7-0.4,1.1-1.2,1.1-2v-54c0-0.8-0.4-1.6-1.2-2L-60.4-292.8z
		 M2.1-245.3c0.7-0.4,1.1-1.2,1.1-2v-5.3c0-0.8-0.4-1.6-1.1-2l-18.6-10.8c-0.7-0.4-1.6-0.4-2.3,0l-18.8,10.8c-0.7,0.4-1.1,1.2-1.1,2
		v21.7c0,0.8,0.4,1.6,1.1,2l18.6,10.6c0.7,0.4,1.5,0.4,2.2,0l11.3-6.3c0.4-0.2,0.6-0.6,0.6-1s-0.2-0.8-0.6-1l-18.9-10.8
		c-0.4-0.2-0.6-0.6-0.6-1v-6.8c0-0.4,0.2-0.8,0.6-1l5.9-3.4c0.3-0.2,0.8-0.2,1.1,0l5.9,3.4c0.3,0.2,0.6,0.6,0.6,1v5.3
		c0,0.4,0.2,0.8,0.6,1c0.3,0.2,0.8,0.2,1.1,0L2.1-245.3z"/>
	<path class="st6" d="M-18-246.3c0.1-0.1,0.3-0.1,0.4,0l3.6,2.1c0.1,0.1,0.2,0.2,0.2,0.4v4.2c0,0.2-0.1,0.3-0.2,0.4l-3.6,2.1
		c-0.1,0.1-0.3,0.1-0.4,0l-3.6-2.1c-0.1-0.1-0.2-0.2-0.2-0.4v-4.2c0-0.2,0.1-0.3,0.2-0.4L-18-246.3z"/>
	<g>
		<defs>
			<path id="SVGID_10_" d="M-121.6-265.2l-18.7,10.8c-0.7,0.4-1.1,1.1-1.1,2v21.6c0,0.8,0.4,1.5,1.1,2l18.7,10.8
				c0.7,0.4,1.6,0.4,2.3,0l18.7-10.8c0.7-0.4,1.1-1.1,1.1-2v-21.6c0-0.8-0.4-1.5-1.1-2l-18.7-10.8c-0.3-0.2-0.7-0.3-1.1-0.3
				S-121.2-265.4-121.6-265.2"/>
		</defs>
		<clipPath id="SVGID_11_">
			<use xlink:href="#SVGID_10_"  style="overflow:visible;"/>
		</clipPath>
		<g transform="translate(-78.306 -164.016)" class="st14">
			
				<linearGradient id="SVGID_12_" gradientUnits="userSpaceOnUse" x1="-20.6698" y1="503.6866" x2="-20.1386" y2="503.6866" gradientTransform="matrix(-50.7531 103.536 103.536 50.7531 -53227.3906 -23528.7539)">
				<stop  offset="0.3" style="stop-color:#3E863D"/>
				<stop  offset="0.5" style="stop-color:#55934F"/>
				<stop  offset="0.8" style="stop-color:#5AAD45"/>
			</linearGradient>
			<path class="st15" d="M-2.4-92.3L-54.9-118l-27,55l52.6,25.8L-2.4-92.3z"/>
		</g>
	</g>
	<g>
		<defs>
			<path id="SVGID_13_" d="M-140.9-229.6c0.2,0.2,0.4,0.4,0.7,0.6l16,9.2l2.7,1.5c0.4,0.2,0.9,0.3,1.3,0.3c0.1,0,0.3,0,0.4-0.1
				l19.7-36c-0.2-0.2-0.3-0.3-0.5-0.4l-12.2-7.1l-6.5-3.7c-0.2-0.1-0.4-0.2-0.6-0.2L-140.9-229.6z"/>
		</defs>
		<clipPath id="SVGID_14_">
			<use xlink:href="#SVGID_13_"  style="overflow:visible;"/>
		</clipPath>
		<g transform="translate(-78.306 -164.016)" class="st16">
			
				<linearGradient id="SVGID_15_" gradientUnits="userSpaceOnUse" x1="-21.4256" y1="507.5103" x2="-21.0809" y2="507.5103" gradientTransform="matrix(142.4074 -105.2221 -105.2221 -142.4074 56385.7344 69959.2422)">
				<stop  offset="0.57" style="stop-color:#3E863D"/>
				<stop  offset="0.72" style="stop-color:#619857"/>
				<stop  offset="1" style="stop-color:#76AC64"/>
			</linearGradient>
			<path class="st17" d="M-85.3-84.6l37.1,50.3L0.9-70.7l-37.1-50.2L-85.3-84.6z"/>
		</g>
	</g>
	<g>
		<defs>
			<path id="SVGID_16_" d="M-120.7-265.5c-0.3,0-0.6,0.1-0.9,0.3l-18.6,10.7l20.1,36.5c0.3,0,0.6-0.1,0.8-0.3l18.7-10.8
				c0.6-0.3,1-0.9,1.1-1.5l-20.5-34.9c-0.2,0-0.3,0-0.5,0C-120.5-265.5-120.6-265.5-120.7-265.5"/>
		</defs>
		<clipPath id="SVGID_17_">
			<use xlink:href="#SVGID_16_"  style="overflow:visible;"/>
		</clipPath>
		<g transform="translate(-78.306 -164.016)" class="st18">
			
				<linearGradient id="SVGID_18_" gradientUnits="userSpaceOnUse" x1="-22.1868" y1="507.1371" x2="-21.8742" y2="507.1371" gradientTransform="matrix(129.8891 0 0 -129.8891 2819.9729 65793.875)">
				<stop  offset="0.16" style="stop-color:#6BBF47"/>
				<stop  offset="0.38" style="stop-color:#79B461"/>
				<stop  offset="0.47" style="stop-color:#75AC64"/>
				<stop  offset="0.7" style="stop-color:#659E5A"/>
				<stop  offset="0.9" style="stop-color:#3E863D"/>
			</linearGradient>
			<path class="st19" d="M-61.9-101.5v47.6h40.6v-47.6L-61.9-101.5z"/>
		</g>
	</g>
</g>
<g>
	<path class="st20" d="M-573-511.9h199v199h-199V-511.9z"/>
	<path d="M-520.7-345.6l15.2-9.2c2.9,5.2,5.6,9.6,12,9.6c6.1,0,10-2.4,10-11.8v-63.6h18.7v63.8c0,19.4-11.4,28.2-27.9,28.2
		C-507.6-328.5-516.3-336.3-520.7-345.6"/>
	<path d="M-454.5-347.6l15.2-8.8c4,6.5,9.2,11.4,18.4,11.4c7.7,0,12.7-3.9,12.7-9.2c0-6.4-5.1-8.7-13.6-12.4l-4.7-2
		c-13.5-5.7-22.4-13-22.4-28.2c0-14,10.7-24.7,27.4-24.7c11.9,0,20.4,4.1,26.6,15l-14.6,9.4c-3.2-5.7-6.7-8-12-8c-5.5,0-9,3.5-9,8
		c0,5.6,3.5,7.9,11.5,11.4l4.7,2c15.9,6.8,24.8,13.8,24.8,29.4c0,16.8-13.2,26-31,26C-437.9-328.5-449.1-336.8-454.5-347.6"/>
</g>
<g>
	<path class="st2" d="M-398,10.8c0,16.4,16,31.8,41.3,40.4c-5,25.4-0.9,45.9,12.9,53.9c14.2,8.2,35.4,2.5,55.6-15.1
		c19.6,16.9,39.4,23.5,53.3,15.5c14.2-8.2,18.5-30.1,13.4-56.3c26.3-8.7,41.1-21.8,41.1-38.4c0-16-16.1-29.9-41-38.5
		c5.6-27.3,0.9-47.3-13.6-55.6c-13.9-8-34-1-53.9,16.3c-20.7-18.4-40.6-24-55-15.7c-13.9,8-17.8,28.9-12.8,54.8
		C-381.1-19.4-398-5.2-398,10.8z"/>
	<path class="st21" d="M-226.8-19.2c-2.1-0.7-4.1-1.4-6.2-2c0.3-1.4,0.7-2.8,1-4.2c4.7-22.9,1.6-41.3-8.9-47.3
		c-10.1-5.8-26.6,0.2-43.2,14.7c-1.6,1.4-3.2,2.9-4.8,4.4c-1-1-2.1-2-3.2-3c-17.4-15.5-34.9-22-45.4-15.9
		c-10.1,5.8-13,23.1-8.8,44.8c0.4,2.1,0.9,4.3,1.4,6.4c-2.5,0.7-4.9,1.5-7.1,2.2c-20.5,7.1-33.5,18.3-33.5,29.9
		c0,12,14,24,35.3,31.3c1.7,0.6,3.5,1.1,5.2,1.6c-0.6,2.3-1.1,4.6-1.5,6.9c-4,21.3-0.9,38.2,9.2,44c10.4,6,27.8-0.2,44.7-15
		c1.3-1.2,2.7-2.4,4-3.7c1.7,1.6,3.4,3.2,5.2,4.8c16.4,14.1,32.6,19.8,42.7,14c10.4-6,13.7-24.1,9.4-46.2c-0.3-1.7-0.7-3.4-1.2-5.2
		c1.2-0.4,2.4-0.7,3.6-1.1c22.1-7.3,36.6-19.2,36.6-31.3C-192.5-0.8-205.9-12-226.8-19.2L-226.8-19.2z"/>
	<path class="st2" d="M-231.6,34.3c-1.1,0.3-2.1,0.7-3.2,1c-2.4-7.7-5.7-16-9.8-24.5c3.9-8.3,7-16.4,9.4-24.1c2,0.6,3.9,1.2,5.7,1.8
		c17.9,6.2,28.8,15.3,28.8,22.3C-200.7,18.3-212.5,28-231.6,34.3L-231.6,34.3z M-239.5,50.1c1.9,9.8,2.2,18.6,0.9,25.5
		c-1.2,6.2-3.5,10.3-6.3,12c-6.1,3.5-19.1-1.1-33.1-13.1c-1.6-1.4-3.2-2.9-4.9-4.4c5.4-6,10.9-12.9,16.2-20.6
		c9.3-0.8,18.2-2.2,26.2-4C-240.2,47-239.8,48.5-239.5,50.1L-239.5,50.1z M-319.8,86.9c-5.9,2.1-10.7,2.2-13.5,0.5
		c-6.1-3.5-8.6-17.1-5.2-35.3c0.4-2.2,0.9-4.3,1.4-6.4c7.9,1.8,16.7,3,26,3.8c5.3,7.5,10.9,14.4,16.6,20.5c-1.2,1.2-2.4,2.3-3.7,3.4
		C-305.6,80-313.2,84.6-319.8,86.9L-319.8,86.9z M-347.6,34.3c-9.4-3.2-17.2-7.4-22.5-12c-4.8-4.1-7.2-8.2-7.2-11.5
		c0-7,10.5-16,28-22.1c2.2-0.8,4.4-1.5,6.6-2.1c2.4,7.9,5.6,16.1,9.4,24.4c-3.9,8.4-7.1,16.8-9.5,24.7
		C-344.5,35.3-346.1,34.8-347.6,34.3z M-338.3-29.3c-3.6-18.6-1.2-32.5,4.8-36.1c6.5-3.7,20.8,1.6,35.8,15c1,0.9,1.9,1.8,2.9,2.7
		c-5.6,6-11.2,12.9-16.5,20.4c-9.1,0.8-17.8,2.2-25.8,4C-337.5-25.3-337.9-27.3-338.3-29.3L-338.3-29.3z M-255-8.7
		c-1.9-3.3-3.8-6.5-5.9-9.7c6.2,0.8,12.1,1.8,17.6,3.1c-1.7,5.3-3.7,10.9-6.2,16.6C-251.2-2-253.1-5.4-255-8.7L-255-8.7z M-289-41.8
		c3.8,4.1,7.6,8.7,11.4,13.7c-7.6-0.4-15.2-0.4-22.8,0C-296.7-33-292.8-37.6-289-41.8L-289-41.8z M-323.2-8.6
		c-1.9,3.3-3.7,6.6-5.5,10c-2.4-5.7-4.5-11.3-6.1-16.7c5.5-1.2,11.4-2.2,17.5-3C-319.3-15.2-321.3-11.9-323.2-8.6z M-317.1,40.7
		c-6.3-0.7-12.3-1.7-17.8-2.9c1.7-5.5,3.8-11.2,6.3-17.1c1.7,3.4,3.6,6.7,5.5,10C-321.2,34.1-319.2,37.4-317.1,40.7z M-288.7,64.1
		c-3.9-4.2-7.8-8.9-11.6-13.9c3.7,0.1,7.5,0.2,11.3,0.2c3.9,0,7.8-0.1,11.7-0.3C-281.1,55.2-284.9,59.9-288.7,64.1z M-249.3,20.5
		c2.6,5.9,4.8,11.6,6.5,17c-5.6,1.3-11.6,2.3-18,3.1c2-3.2,4-6.5,5.9-9.8C-253,27.3-251.1,23.9-249.3,20.5L-249.3,20.5z
		 M-262.1,26.6c-2.9,5.1-6,10.1-9.3,15c-5.7,0.4-11.7,0.6-17.7,0.6c-6,0-11.9-0.2-17.5-0.6c-3.3-4.9-6.5-9.9-9.4-15
		c-2.9-5.1-5.7-10.3-8.2-15.6c2.5-5.3,5.3-10.5,8.2-15.6v0c2.9-5.1,6.1-10.1,9.4-14.9c5.7-0.4,11.6-0.7,17.6-0.7
		c6,0,11.9,0.2,17.6,0.7c3.3,4.8,6.4,9.8,9.3,14.9c2.9,5.1,5.7,10.2,8.3,15.5C-256.4,16.2-259.1,21.5-262.1,26.6L-262.1,26.6z
		 M-245.1-65.6c6.5,3.7,9,18.8,4.9,38.5c-0.3,1.3-0.6,2.6-0.9,3.8c-8-1.8-16.7-3.2-25.8-4.1c-5.3-7.6-10.8-14.4-16.3-20.4
		c1.4-1.4,2.9-2.8,4.4-4.1C-264.5-64.2-251.1-69.1-245.1-65.6L-245.1-65.6z"/>
	<path class="st21" d="M-289-6.4c9.5,0,17.2,7.7,17.2,17.2c0,9.5-7.7,17.3-17.2,17.3c-9.5,0-17.2-7.7-17.2-17.3
		C-306.3,1.3-298.6-6.4-289-6.4"/>
</g>
<g>
	<path class="st22" d="M854.8,67.5c0-12.6-15.7-24.5-39.9-31.9c5.6-24.6,3.1-44.1-7.8-50.4c-2.5-1.5-5.5-2.2-8.7-2.2v8.6
		c1.8,0,3.2,0.3,4.4,1c5.3,3,7.5,14.5,5.8,29.3c-0.4,3.6-1.1,7.5-2,11.4c-7.6-1.9-15.9-3.3-24.5-4.2c-5.2-7.2-10.6-13.6-16.1-19.3
		c12.6-11.7,24.4-18.1,32.5-18.1v-8.6l0,0c-10.6,0-24.5,7.6-38.6,20.7c-14.1-13.1-28-20.6-38.6-20.6v8.6c8,0,19.9,6.4,32.5,18
		c-5.4,5.7-10.8,12.1-16,19.3c-8.7,0.9-17,2.4-24.6,4.3c-0.9-3.9-1.5-7.6-2-11.2c-1.8-14.8,0.4-26.2,5.6-29.3c1.2-0.7,2.7-1,4.4-1
		v-8.6l0,0c-3.2,0-6.2,0.7-8.7,2.2c-10.9,6.3-13.3,25.8-7.7,50.3c-24,7.4-39.7,19.3-39.7,31.8c0,12.6,15.7,24.5,39.9,31.9
		c-5.6,24.6-3.1,44.1,7.8,50.4c2.5,1.5,5.5,2.2,8.7,2.2c10.6,0,24.5-7.6,38.6-20.7c14.1,13.1,28,20.6,38.6,20.6
		c3.2,0,6.2-0.7,8.7-2.2c10.9-6.3,13.3-25.8,7.7-50.3C839.2,92,854.8,80.1,854.8,67.5z M804.5,41.7c-1.4,5-3.2,10.1-5.2,15.3
		c-1.6-3.1-3.2-6.2-5.1-9.3c-1.8-3.1-3.7-6.1-5.6-9C794.1,39.5,799.4,40.5,804.5,41.7z M786.8,82.9c-3,5.2-6.1,10.2-9.3,14.8
		c-5.8,0.5-11.6,0.8-17.5,0.8c-5.8,0-11.7-0.3-17.4-0.7c-3.2-4.6-6.3-9.5-9.4-14.7c-2.9-5.1-5.6-10.2-8-15.4
		c2.4-5.2,5.1-10.4,8-15.4c3-5.2,6.1-10.2,9.3-14.8c5.8-0.5,11.6-0.8,17.5-0.8c5.8,0,11.7,0.3,17.4,0.7c3.2,4.6,6.3,9.5,9.4,14.7
		c2.9,5.1,5.6,10.2,8,15.4C792.4,72.7,789.7,77.9,786.8,82.9z M799.3,77.9c2.1,5.2,3.9,10.4,5.3,15.4c-5.1,1.2-10.4,2.3-15.9,3.1
		c1.9-3,3.8-6,5.6-9.2C796,84.1,797.7,81,799.3,77.9z M760.1,119.1c-3.6-3.7-7.2-7.8-10.7-12.4c3.5,0.2,7,0.3,10.6,0.3
		c3.6,0,7.2-0.1,10.7-0.3C767.2,111.3,763.6,115.4,760.1,119.1z M731.3,96.4c-5.5-0.8-10.8-1.8-15.9-3.1c1.4-5,3.2-10.1,5.2-15.3
		c1.6,3.1,3.2,6.2,5.1,9.3C727.6,90.4,729.4,93.4,731.3,96.4z M759.9,15.9c3.6,3.7,7.2,7.8,10.7,12.4c-3.5-0.2-7-0.3-10.6-0.3
		c-3.6,0-7.2,0.1-10.7,0.3C752.7,23.8,756.3,19.6,759.9,15.9z M731.3,38.7c-1.9,3-3.8,6-5.6,9.2c-1.8,3.1-3.4,6.2-5,9.3
		c-2.1-5.2-3.9-10.4-5.3-15.4C720.4,40.5,725.7,39.5,731.3,38.7z M696.3,87.1c-13.7-5.8-22.5-13.5-22.5-19.6
		c0-6.1,8.9-13.8,22.5-19.6c3.3-1.4,7-2.7,10.7-3.9c2.2,7.6,5.1,15.5,8.7,23.5c-3.6,8-6.4,15.9-8.6,23.4
		C703.3,89.8,699.7,88.5,696.3,87.1z M717.1,142.3c-5.3-3-7.5-14.5-5.8-29.3c0.4-3.6,1.1-7.5,2-11.4c7.6,1.9,15.9,3.3,24.5,4.2
		c5.2,7.2,10.6,13.6,16.1,19.3c-12.6,11.7-24.4,18.1-32.5,18.1C719.7,143.3,718.2,143,717.1,142.3z M808.8,112.9
		c1.8,14.8-0.4,26.2-5.6,29.3c-1.2,0.7-2.7,1-4.4,1c-8,0-19.9-6.4-32.5-18c5.4-5.7,10.8-12.1,16-19.3c8.7-0.9,17-2.4,24.6-4.3
		C807.7,105.5,808.4,109.3,808.8,112.9z M823.7,87.1c-3.3,1.4-7,2.7-10.7,3.9c-2.2-7.6-5.1-15.5-8.7-23.5c3.6-8,6.4-15.9,8.6-23.4
		c3.8,1.2,7.5,2.5,10.9,3.9c13.7,5.8,22.5,13.5,22.5,19.6C846.2,73.6,837.4,81.3,823.7,87.1z"/>
	<path class="st22" d="M721.3-16.8L721.3-16.8L721.3-16.8z"/>
	<circle class="st22" cx="760" cy="67.5" r="17.7"/>
	<path class="st22" d="M798.5-16.9L798.5-16.9L798.5-16.9z"/>
</g>
</svg>
