<?xml version="1.0" encoding="utf-8"?>
<!-- Generator: Adobe Illustrator 22.0.1, SVG Export Plug-In . SVG Version: 6.00 Build 0)  -->
<svg version="1.1" id="Layer_1" xmlns="http://www.w3.org/2000/svg" xmlns:xlink="http://www.w3.org/1999/xlink" x="0px" y="0px"
	 viewBox="0 0 202.6 123.7" style="enable-background:new 0 0 202.6 123.7;" xml:space="preserve">
<style type="text/css">
	.st0{fill:#689F63;}
	.st1{fill:#333333;}
	.st2{clip-path:url(#SVGID_2_);fill:url(#SVGID_3_);}
	.st3{clip-path:url(#SVGID_5_);fill:url(#SVGID_6_);}
	.st4{clip-path:url(#SVGID_8_);fill:url(#SVGID_9_);}
</style>
<path class="st0" d="M99.3,119.7c-0.6,0-1.3-0.2-1.8-0.5l-5.8-3.4c-0.9-0.5-0.4-0.7-0.2-0.8c1.1-0.4,1.4-0.5,2.6-1.2
	c0.1-0.1,0.3,0,0.4,0l4.4,2.6c0.2,0.1,0.4,0.1,0.5,0l17.3-10c0.2-0.1,0.3-0.3,0.3-0.5v-20c0-0.2-0.1-0.4-0.3-0.5l-17.1-9.7
	c-0.2-0.1-0.4-0.1-0.5,0l-17.3,10c-0.2,0.1-0.3,0.3-0.3,0.5v20c0,0.2,0.1,0.4,0.3,0.5l4.7,2.7c2.6,1.3,4.1-0.2,4.1-1.8V87.9
	c0-0.3,0.2-0.5,0.5-0.5h2.2c0.3,0,0.5,0.2,0.5,0.5v19.7c0,3.4-1.9,5.4-5.1,5.4c-1,0-1.8,0-4-1.1l-4.5-2.6c-1.1-0.6-1.8-1.9-1.8-3.2
	v-20c0-1.3,0.7-2.5,1.8-3.2l17.3-10c1.1-0.6,2.6-0.6,3.6,0l17.3,10c1.1,0.6,1.8,1.9,1.8,3.2v20c0,1.3-0.7,2.5-1.8,3.2l-17.3,10
	C100.6,119.6,99.9,119.7,99.3,119.7"/>
<path class="st0" d="M104.6,106c-7.6,0-9.2-3.5-9.2-6.4c0-0.3,0.2-0.5,0.5-0.5h2.2c0.2,0,0.5,0.2,0.5,0.4c0.3,2.3,1.3,3.4,5.9,3.4
	c3.6,0,5.2-0.8,5.2-2.8c0-1.1-0.4-1.9-6.1-2.5c-4.7-0.5-7.7-1.5-7.7-5.3c0-3.5,2.9-5.6,7.9-5.6c5.5,0,8.3,1.9,8.6,6.1
	c0,0.1,0,0.3-0.1,0.4s-0.2,0.2-0.4,0.2h-2.2c-0.2,0-0.4-0.2-0.5-0.4c-0.5-2.4-1.8-3.2-5.4-3.2c-4,0-4.4,1.4-4.4,2.4
	c0,1.3,0.5,1.6,5.9,2.3c5.3,0.7,7.8,1.7,7.8,5.4C113.2,103.9,110.1,106,104.6,106 M125.7,84.9h0.6c0.5,0,0.6-0.3,0.6-0.5
	c0-0.5-0.4-0.5-0.5-0.5h-0.6L125.7,84.9z M125,83.2h1.3c0.4,0,1.3,0,1.3,1c0,0.7-0.4,0.8-0.7,0.9c0.5,0,0.5,0.4,0.6,0.8
	c0,0.3,0.1,0.8,0.2,1h-0.8c0-0.2-0.1-1.1-0.1-1.2c-0.1-0.2-0.1-0.3-0.4-0.3h-0.7v1.5H125C125,86.9,125,83.2,125,83.2z M123.4,85.1
	c0,1.5,1.3,2.8,2.8,2.8s2.8-1.3,2.8-2.8c0-1.6-1.3-2.8-2.8-2.8S123.4,83.5,123.4,85.1 M129.6,85.1c0,1.8-1.5,3.3-3.3,3.3
	c-1.8,0-3.3-1.5-3.3-3.3c0-1.9,1.5-3.3,3.3-3.3C128,81.8,129.6,83.2,129.6,85.1"/>
<path class="st1" d="M45.7,41.7c0-0.8-0.4-1.5-1.1-1.9L26.3,29.2c-0.3-0.2-0.7-0.3-1-0.3h-0.2c-0.4,0-0.7,0.1-1,0.3L5.7,39.7
	c-0.7,0.4-1.1,1.1-1.1,1.9V70c0,0.4,0.2,0.8,0.5,1s0.8,0.2,1.1,0l10.9-6.2c0.7-0.4,1.1-1.1,1.1-1.9V49.6c0-0.8,0.4-1.5,1.1-1.9
	l4.6-2.7c0.3-0.2,0.7-0.3,1.1-0.3s0.8,0.1,1.1,0.3l4.6,2.7c0.7,0.4,1.1,1.1,1.1,1.9v13.3c0,0.8,0.4,1.5,1.1,1.9L43.8,71
	c0.3,0.2,0.8,0.2,1.1,0s0.5-0.6,0.5-1L45.7,41.7z M132.3,56.5c0,0.2-0.1,0.4-0.3,0.5l-6.3,3.6c-0.2,0.1-0.4,0.1-0.6,0l-6.3-3.6
	c-0.2-0.1-0.3-0.3-0.3-0.5v-7.3c0-0.2,0.1-0.4,0.3-0.5l6.3-3.6c0.2-0.1,0.4-0.1,0.6,0l6.3,3.6c0.2,0.1,0.3,0.3,0.3,0.5V56.5z
	 M134,2.6c-0.3-0.2-0.8-0.2-1.1,0c-0.3,0.2-0.5,0.6-0.5,1v28.1c0,0.3-0.1,0.5-0.4,0.7c-0.2,0.1-0.5,0.1-0.8,0l-4.6-2.6
	c-0.7-0.4-1.5-0.4-2.2,0l-18.3,10.6c-0.7,0.4-1.1,1.1-1.1,1.9v21.2c0,0.8,0.4,1.5,1.1,1.9l18.3,10.5c0.7,0.4,1.5,0.4,2.2,0
	l18.3-10.6c0.7-0.4,1.1-1.1,1.1-1.9V10.6c0-0.8-0.4-1.5-1.1-1.9L134,2.6z M195.1,49c0.7-0.4,1.1-1.1,1.1-1.9V42
	c0-0.8-0.4-1.5-1.1-1.9l-18.2-10.6c-0.7-0.4-1.5-0.4-2.2,0l-18.3,10.6c-0.7,0.4-1.1,1.1-1.1,1.9v21.2c0,0.8,0.4,1.5,1.1,1.9
	l18.2,10.4c0.7,0.4,1.5,0.4,2.2,0l11-6.1c0.3-0.2,0.6-0.6,0.6-1s-0.2-0.8-0.6-1l-18.5-10.6c-0.3-0.2-0.6-0.6-0.6-1v-6.6
	c0-0.4,0.2-0.8,0.6-1l5.7-3.3c0.3-0.2,0.8-0.2,1.1,0l5.7,3.3c0.3,0.2,0.6,0.6,0.6,1v5.2c0,0.4,0.2,0.8,0.6,1c0.3,0.2,0.8,0.2,1.1,0
	L195.1,49z"/>
<path class="st0" d="M175.5,48c0.1-0.1,0.3-0.1,0.4,0l3.5,2c0.1,0.1,0.2,0.2,0.2,0.4v4.1c0,0.2-0.1,0.3-0.2,0.4l-3.5,2
	c-0.1,0.1-0.3,0.1-0.4,0l-3.5-2c-0.1-0.1-0.2-0.2-0.2-0.4v-4.1c0-0.2,0.1-0.3,0.2-0.4L175.5,48z"/>
<g>
	<g>
		<defs>
			<path id="SVGID_1_" d="M74.9,29.4L56.1,40.2c-0.7,0.4-1.1,1.2-1.1,2v21.7c0,0.8,0.4,1.6,1.1,2l18.8,10.9c0.7,0.4,1.6,0.4,2.3,0
				l18.8-10.9c0.7-0.4,1.1-1.2,1.1-2V42.2c0-0.8-0.4-1.6-1.1-2L77.1,29.4c-0.4-0.2-0.7-0.3-1.1-0.3C75.6,29.1,75.2,29.2,74.9,29.4"
				/>
		</defs>
		<clipPath id="SVGID_2_">
			<use xlink:href="#SVGID_1_"  style="overflow:visible;"/>
		</clipPath>
		
			<linearGradient id="SVGID_3_" gradientUnits="userSpaceOnUse" x1="-0.9701" y1="159.9602" x2="-0.435" y2="159.9602" gradientTransform="matrix(-50.7531 103.536 103.536 50.7531 -16521.3027 -7992.6523)">
			<stop  offset="0.3" style="stop-color:#3E863D"/>
			<stop  offset="0.5" style="stop-color:#55934F"/>
			<stop  offset="0.8" style="stop-color:#5AAD45"/>
		</linearGradient>
		<path class="st2" d="M116.1,38.4l-53-26L35.9,67.8l53,26L116.1,38.4z"/>
	</g>
	<g>
		<defs>
			<path id="SVGID_4_" d="M55.4,65.3c0.2,0.2,0.4,0.4,0.7,0.6l16.1,9.3l2.7,1.5c0.4,0.2,0.9,0.3,1.3,0.3c0.1,0,0.3,0,0.4-0.1
				l19.8-36.3c-0.2-0.2-0.3-0.3-0.5-0.4l-12.3-7.1l-6.5-3.7c-0.2-0.1-0.4-0.2-0.6-0.2L55.4,65.3z"/>
		</defs>
		<clipPath id="SVGID_5_">
			<use xlink:href="#SVGID_4_"  style="overflow:visible;"/>
		</clipPath>
		
			<linearGradient id="SVGID_6_" gradientUnits="userSpaceOnUse" x1="-1.7424" y1="162.0535" x2="-1.395" y2="162.0535" gradientTransform="matrix(142.4074 -105.2221 -105.2221 -142.4074 17350.9355 22965.6426)">
			<stop  offset="0.57" style="stop-color:#3E863D"/>
			<stop  offset="0.72" style="stop-color:#619857"/>
			<stop  offset="1" style="stop-color:#76AC64"/>
		</linearGradient>
		<path class="st3" d="M32.5,46.1l37.4,50.6l49.5-36.5L82,9.5L32.5,46.1z"/>
	</g>
	<g>
		<defs>
			<path id="SVGID_7_" d="M75.8,29.1c-0.3,0-0.6,0.1-0.9,0.3L56.1,40.2L76.3,77c0.3,0,0.6-0.1,0.8-0.3l18.8-10.9
				c0.6-0.3,1-0.9,1.1-1.6L76.4,29.1c-0.2,0-0.3,0-0.5,0C75.9,29.1,75.8,29.1,75.8,29.1"/>
		</defs>
		<clipPath id="SVGID_8_">
			<use xlink:href="#SVGID_7_"  style="overflow:visible;"/>
		</clipPath>
		
			<linearGradient id="SVGID_9_" gradientUnits="userSpaceOnUse" x1="-1.9386" y1="161.7729" x2="-1.6237" y2="161.7729" gradientTransform="matrix(129.8891 0 0 -129.8891 307.9218 21065.5742)">
			<stop  offset="0.16" style="stop-color:#6BBF47"/>
			<stop  offset="0.38" style="stop-color:#79B461"/>
			<stop  offset="0.47" style="stop-color:#75AC64"/>
			<stop  offset="0.7" style="stop-color:#659E5A"/>
			<stop  offset="0.9" style="stop-color:#3E863D"/>
		</linearGradient>
		<path class="st4" d="M56.1,29.1V77H97V29.1L56.1,29.1z"/>
	</g>
</g>
</svg>
