<?xml version="1.0" encoding="utf-8"?>
<!-- Generator: Adobe Illustrator 22.0.1, SVG Export Plug-In . SVG Version: 6.00 Build 0)  -->
<svg version="1.1" id="Layer_1" xmlns="http://www.w3.org/2000/svg" xmlns:xlink="http://www.w3.org/1999/xlink" x="0px" y="0px"
	 viewBox="0 0 200 200" style="enable-background:new 0 0 200 200;" xml:space="preserve">
<style type="text/css">
	.st0{fill:#8E714E;}
	.st1{fill:#442D22;}
	.st2{fill:#FFFFFF;}
	.st3{fill:#A6A385;}
	.st4{fill:#499D4A;}
	.st5{fill:#58AA50;}
	.st6{fill:#689F63;}
	.st7{fill:#333333;}
	.st8{clip-path:url(#SVGID_2_);}
	.st9{fill:url(#SVGID_3_);}
	.st10{clip-path:url(#SVGID_5_);}
	.st11{fill:url(#SVGID_6_);}
	.st12{clip-path:url(#SVGID_8_);}
	.st13{fill:url(#SVGID_9_);}
	.st14{clip-path:url(#SVGID_11_);}
	.st15{fill:url(#SVGID_12_);}
	.st16{clip-path:url(#SVGID_14_);}
	.st17{fill:url(#SVGID_15_);}
	.st18{clip-path:url(#SVGID_17_);}
	.st19{fill:url(#SVGID_18_);}
	.st20{fill:#F7DF1E;}
	.st21{fill:#53C1DE;}
	.st22{fill:#61DAFB;}
</style>
<g>
	<path class="st0" d="M581.8-225.6c-0.2,0-0.3,0.4-0.3,0.6c0,1.4-0.1,5-0.1,7.5c0,0.1,0.1,0.2,0.2,0.2c0.5,0,1.8,0.1,2.8,0.1
		c1.5,0,2.3-0.2,2.8-0.4c1.2-0.6,1.8-2,1.8-3.4c0-3.3-2.3-4.6-5.8-4.6C583-225.7,582.3-225.7,581.8-225.6L581.8-225.6z M590.7-210.2
		c0-3.4-2.5-5.3-7.1-5.3c-0.2,0-1.7,0-2,0c-0.1,0-0.2,0.1-0.2,0.2c0,2.4,0,6.3,0.1,7.8c0.1,0.7,0.6,1.6,1.1,1.9c0.6,0.3,2,0.4,3,0.4
		C588.3-205.1,590.7-206.7,590.7-210.2L590.7-210.2z M574.8-227.5c0.3,0,1.4,0.1,4,0.1c2.5,0,4.5-0.1,7-0.1c3,0,7.1,1.1,7.1,5.5
		c0,2.2-1.5,4-3.6,4.8c-0.1,0-0.1,0.1,0,0.1c2.9,0.7,5.4,2.5,5.4,5.9c0,3.3-2.1,5.4-5.1,6.7c-1.8,0.8-4.1,1.1-6.4,1.1
		c-1.8,0-6.5-0.2-9.1-0.1c-0.3-0.1,0.2-1.3,0.5-1.5c0.6,0,1.1-0.1,1.8-0.3c0.9-0.2,1-0.5,1.2-1.9c0.1-1.2,0.1-5.5,0.1-8.5
		c0-4.2,0-7,0-8.4c0-1.1-0.4-1.4-1.2-1.6c-0.6-0.1-1.5-0.2-2.3-0.3C574-226.2,574.6-227.4,574.8-227.5L574.8-227.5z M554.9-206.1
		c0.8,0.7,2.4,0.9,3.9,0.9c1.9,0,3.7-0.3,5.5-2c1.8-1.7,3.1-4.2,3.1-8.3c0-3.9-1.5-7.1-4.5-8.9c-1.7-1.1-3.9-1.5-6.5-1.5
		c-0.8,0-1.5,0-1.9,0.2c-0.1,0.1-0.3,0.4-0.3,0.6c-0.1,0.7-0.1,6-0.1,9.1c0,3.2,0,7.7,0.1,8.2C554.2-207.2,554.4-206.4,554.9-206.1
		L554.9-206.1z M547.1-227.5c0.7,0,3.2,0.1,4.4,0.1c2.2,0,3.7-0.1,7.8-0.1c3.4,0,6.3,0.9,8.4,2.7c2.5,2.2,3.8,5.2,3.8,8.8
		c0,5.2-2.4,8.2-4.8,9.9c-2.4,1.8-5.5,2.8-9.9,2.8c-2.3,0-6.4-0.1-9.7-0.1h0c-0.2-0.3,0.3-1.5,0.6-1.5c0.9-0.1,1.1-0.1,1.6-0.3
		c0.7-0.3,0.9-0.7,1-1.9c0.1-2.4,0.1-5.2,0.1-8.5c0-2.3,0-6.8,0-8.3c-0.1-1.2-0.6-1.5-1.7-1.7c-0.5-0.1-1.2-0.2-2.2-0.3
		C546.3-226.2,547-227.3,547.1-227.5L547.1-227.5z"/>
	<path class="st1" d="M505.5-204.7c-0.9-0.1-1.5-0.2-2.2-0.6c-0.1-0.1-0.3-0.4-0.3-0.6c-0.1-1.2-0.1-4.6-0.1-7
		c0-1.9-0.3-3.5-1.1-4.6c-0.9-1.3-2.3-2.1-4-2.1c-1.5,0-3.5,1-5.2,2.5c0,0-0.3,0.3-0.3-0.1c0-0.4,0.1-1.1,0.1-1.7
		c0-0.5-0.2-0.7-0.2-0.7c-1.1,0.6-4.2,1.3-5.3,1.4c-0.8,0.2-1,1-0.2,1.2h0c0.9,0.3,1.5,0.6,2,0.9c0.3,0.3,0.3,0.7,0.3,1
		c0,2.6,0,6.5-0.1,8.7c0,0.9-0.3,1.2-0.9,1.3l0.1,0c-0.5,0.1-0.9,0.2-1.4,0.3c-0.2,0.2-0.2,1.3,0,1.5c0.4,0,2.4-0.1,4-0.1
		c2.3,0,3.4,0.1,4,0.1c0.2-0.3,0.3-1.3,0.2-1.5c-0.7,0-1.1-0.1-1.6-0.2c-0.6-0.1-0.8-0.4-0.8-1.2c-0.1-1.8-0.1-5.7-0.1-8.3
		c0-0.7,0.2-1.1,0.4-1.3c0.8-0.7,2.1-1.2,3.2-1.2c1.1,0,1.8,0.3,2.4,0.8c0.8,0.6,1,1.5,1.1,2.2c0.2,1.5,0.1,4.4,0.1,7
		c0,1.4-0.1,1.7-0.6,1.9c-0.2,0.1-0.9,0.2-1.6,0.3c-0.2,0.2-0.2,1.3,0,1.5c1,0,2.2-0.1,3.9-0.1c2.1,0,3.5,0.1,4.1,0.1
		C505.5-203.5,505.6-204.5,505.5-204.7L505.5-204.7z M515-217.9c-1.8,0-3,1.4-3,3.6c0,2.2,1,4.8,3.8,4.8c0.5,0,1.4-0.2,1.8-0.7
		c0.7-0.6,1.1-1.9,1.1-3.2C518.8-216.2,517.4-217.9,515-217.9L515-217.9z M514.8-202.7c-0.7,0-1.2,0.2-1.5,0.4
		c-1.4,0.9-2.1,1.8-2.1,2.9c0,1,0.4,1.8,1.2,2.5c1,0.9,2.4,1.3,4.1,1.3c3.5,0,5.1-1.9,5.1-3.8c0-1.3-0.7-2.2-2-2.7
		C518.6-202.5,516.9-202.7,514.8-202.7L514.8-202.7z M515-193.7c-2.1,0-3.6-0.4-4.9-1.4c-1.3-1-1.8-2.4-1.8-3.4c0-0.3,0.1-1,0.7-1.7
		c0.4-0.4,1.2-1.2,3.2-2.5c0.1,0,0.1-0.1,0.1-0.1c0-0.1-0.1-0.1-0.1-0.2c-1.6-0.6-2.1-1.6-2.2-2.2v-0.1c0-0.2-0.1-0.4,0.2-0.6
		c0.2-0.2,0.6-0.4,1-0.6c0.6-0.3,1.2-0.7,1.6-1c0.1-0.1,0.1-0.1,0.1-0.2s-0.1-0.1-0.1-0.2c-2.4-0.8-3.6-2.6-3.6-5.3
		c0-1.8,0.8-3.3,2.2-4.3c1-0.8,3.4-1.7,5-1.7h0.1c1.6,0,2.5,0.4,3.8,0.8c0.7,0.2,1.3,0.3,2.2,0.3c1.3,0,1.9-0.4,2.4-0.9
		c0,0.1,0.1,0.2,0.1,0.7c0,0.4-0.1,1.1-0.4,1.6c-0.3,0.4-0.9,0.7-1.5,0.7h-0.2c-0.6-0.1-0.9-0.1-0.9-0.1l-0.1,0.1c0,0.1,0,0.1,0,0.2
		l0,0.1c0.1,0.3,0.2,1.2,0.2,1.5c0,2.8-1.1,4.1-2.3,5c-1.2,0.9-2.5,1.4-4,1.5c0,0-0.2,0-0.5,0c-0.2,0-0.4,0-0.4,0h0
		c-0.3,0.1-1,0.4-1,1c0,0.5,0.3,1.1,1.8,1.2c0.3,0,0.6,0,1,0.1c2,0.1,4.4,0.3,5.5,0.7c1.6,0.6,2.6,2,2.6,3.7c0,2.5-1.8,4.9-4.9,6.4
		C518.1-194.1,516.6-193.7,515-193.7L515-193.7z M534.6-217.7c-0.7,0-1.4,0.2-1.9,0.5c-1.3,0.8-2,2.5-2,4.9c0,4.5,2.3,7.7,5.5,7.7
		c1,0,1.7-0.3,2.4-0.8c1-0.8,1.5-2.5,1.5-4.8C540.1-214.7,537.9-217.7,534.6-217.7L534.6-217.7z M535.3-203c-5.9,0-8-4.3-8-8.3
		c0-2.8,1.1-5,3.4-6.5c1.6-1,3.5-1.5,5.3-1.5c4.5,0,7.6,3.2,7.6,7.8c0,3.1-1.2,5.6-3.6,7.1C538.8-203.7,536.9-203,535.3-203
		L535.3-203L535.3-203z M473.9-217.7c-0.7,0-1.4,0.2-1.9,0.5c-1.3,0.8-2,2.5-2,4.9c0,4.5,2.3,7.7,5.5,7.7c1,0,1.7-0.3,2.4-0.8
		c1-0.8,1.5-2.5,1.5-4.8C479.4-214.7,477.2-217.7,473.9-217.7L473.9-217.7z M474.5-203c-5.9,0-8-4.3-8-8.3c0-2.8,1.1-5,3.4-6.5
		c1.6-1,3.5-1.5,5.3-1.5c4.5,0,7.6,3.2,7.6,7.8c0,3.1-1.2,5.6-3.6,7.1C478.1-203.7,476.2-203,474.5-203L474.5-203z M435.2-203.3
		c-0.1-0.1-0.1-0.4-0.1-0.8c0-0.3,0.1-0.4,0.1-0.5c0.7-0.1,1.1-0.2,1.5-0.3c0.7-0.2,1-0.6,1-1.4c0.1-2.1,0.1-6,0.1-8.7v-0.1
		c0-0.3,0-0.7-0.4-1c-0.6-0.3-1.2-0.7-2.1-0.9c-0.3-0.1-0.5-0.3-0.5-0.5c0-0.2,0.2-0.4,0.7-0.5c1.1-0.1,4.1-0.8,5.3-1.3
		c0.1,0.1,0.2,0.3,0.2,0.6l0,0.4c0,0.4-0.1,0.8-0.1,1.3c0,0.1,0.1,0.2,0.3,0.2c0.1,0,0.1,0,0.2-0.1c2.2-1.7,4.2-2.3,5.2-2.3
		c1.7,0,3,0.8,4,2.4c0.1,0.1,0.1,0.1,0.2,0.1c0.1,0,0.2,0,0.2-0.1c2-1.5,4.1-2.5,5.4-2.5c3.2,0,5.1,2.4,5.1,6.4c0,1.1,0,2.6,0,4
		c0,1.2,0,2.3,0,3.1c0,0.2,0.2,0.7,0.6,0.8c0.5,0.2,1.1,0.3,2,0.5h0c0.1,0.2-0.1,1.1-0.2,1.3c-0.2,0-0.5,0-0.9,0
		c-0.9,0-1.7-0.1-2.6-0.1c-2.1,0-3.2,0-4.3,0.1c-0.1-0.3-0.1-1.1,0-1.3c0.6-0.1,0.9-0.2,1.3-0.3c0.7-0.2,0.9-0.5,0.9-1.4
		c0-0.7,0.1-6.2-0.1-7.6c-0.2-1.4-1.2-3-3.5-3c-0.9,0-2.2,0.3-3.5,1.3c-0.1,0.1-0.1,0.2-0.1,0.3v0c0.1,0.7,0.1,1.5,0.1,2.8v2.2
		c0,1.5,0,3,0,4.1c0,0.8,0.4,0.9,0.8,1.1c0.2,0,0.3,0.1,0.5,0.1c0.3,0.1,0.6,0.1,1.1,0.2c0.1,0.1,0.1,0.6,0,1c0,0.2-0.1,0.3-0.1,0.3
		c-1.2,0-2.4-0.1-4.1-0.1c-0.5,0-1.4,0-2.2,0c-0.6,0-1.2,0-1.5,0c0-0.1-0.1-0.3-0.1-0.7c0-0.3,0.1-0.6,0.1-0.6
		c0.2,0,0.3-0.1,0.5-0.1c0.4-0.1,0.8-0.1,1.1-0.2c0.6-0.2,0.8-0.5,0.8-1.2c0.1-1.7,0.2-6.6,0-7.9c-0.4-2-1.5-3-3.4-3
		c-1.1,0-2.4,0.5-3.5,1.3c-0.2,0.1-0.3,0.5-0.3,0.8v2c0,2.5,0,5.6,0,6.9c0,0.4,0.2,0.9,1,1.1c0.2,0,0.4,0.1,0.8,0.1l0.6,0.1
		c0.1,0.2,0,1-0.1,1.3c-0.3,0-0.8,0-1.2,0c-0.7,0-1.7-0.1-2.7-0.1c-1.2,0-2.1,0-2.8,0.1C436-203.3,435.6-203.3,435.2-203.3
		L435.2-203.3z"/>
	<path class="st2" d="M417.1-195.1l-1.4-0.5c0,0,0.2-7.2-2.4-7.7c-1.7-2,0.3-84.7,6.5-0.3c0,0-2.1,1.1-2.5,2.9
		C416.8-198.8,417.1-195.1,417.1-195.1L417.1-195.1z"/>
	<path class="st3" d="M417.1-195.1l-1.4-0.5c0,0,0.2-7.2-2.4-7.7c-1.7-2,0.3-84.7,6.5-0.3c0,0-2.1,1.1-2.5,2.9
		C416.8-198.8,417.1-195.1,417.1-195.1L417.1-195.1z"/>
	<path class="st2" d="M417.8-202c0,0,12.4-8.1,9.5-25c-2.8-12.3-9.4-16.3-10.1-17.9c-0.8-1.1-1.5-3-1.5-3l0.5,34.2
		C416.2-213.7,415.1-203.3,417.8-202"/>
	<path class="st4" d="M417.8-202c0,0,12.4-8.1,9.5-25c-2.8-12.3-9.4-16.3-10.1-17.9c-0.8-1.1-1.5-3-1.5-3l0.5,34.2
		C416.2-213.7,415.1-203.3,417.8-202"/>
	<path class="st2" d="M414.9-201.6c0,0-11.6-7.9-10.9-21.9c0.7-13.9,8.8-20.8,10.4-22c1-1.1,1.1-1.5,1.1-2.6
		c0.7,1.5,0.6,23.2,0.7,25.7C416.6-212.5,415.7-203.4,414.9-201.6z"/>
	<path class="st5" d="M414.9-201.6c0,0-11.6-7.9-10.9-21.9c0.7-13.9,8.8-20.8,10.4-22c1-1.1,1.1-1.5,1.1-2.6
		c0.7,1.5,0.6,23.2,0.7,25.7C416.6-212.5,415.7-203.4,414.9-201.6z"/>
</g>
<g>
	<path class="st6" d="M146.1-270c-0.6,0-1.3-0.2-1.9-0.5l-5.9-3.5c-0.9-0.5-0.5-0.7-0.2-0.8c1.2-0.4,1.4-0.5,2.7-1.2
		c0.1-0.1,0.3,0,0.4,0l4.5,2.7c0.2,0.1,0.4,0.1,0.5,0l17.7-10.2c0.2-0.1,0.3-0.3,0.3-0.5v-20.4c0-0.2-0.1-0.4-0.3-0.5l-17.7-10.2
		c-0.2-0.1-0.4-0.1-0.5,0l-17.7,10.2c-0.2,0.1-0.3,0.3-0.3,0.5v20.4c0,0.2,0.1,0.4,0.3,0.5l4.8,2.8c2.6,1.3,4.2-0.2,4.2-1.8v-20.2
		c0-0.3,0.2-0.5,0.5-0.5h2.2c0.3,0,0.5,0.2,0.5,0.5v20.2c0,3.5-1.9,5.5-5.2,5.5c-1,0-1.8,0-4.1-1.1l-4.6-2.7
		c-1.1-0.7-1.9-1.9-1.9-3.2v-20.4c0-1.3,0.7-2.6,1.9-3.2l17.7-10.2c1.1-0.6,2.6-0.6,3.7,0l17.7,10.2c1.1,0.7,1.9,1.9,1.9,3.2v20.4
		c0,1.3-0.7,2.6-1.9,3.2L148-270.5C147.4-270.2,146.8-270,146.1-270"/>
	<path class="st6" d="M151.6-284.1c-7.7,0-9.4-3.6-9.4-6.5c0-0.3,0.2-0.5,0.5-0.5h2.3c0.3,0,0.5,0.2,0.5,0.4
		c0.3,2.3,1.4,3.5,6.1,3.5c3.7,0,5.3-0.8,5.3-2.8c0-1.1-0.5-2-6.2-2.6c-4.8-0.5-7.8-1.5-7.8-5.4c0-3.6,3-5.7,8.1-5.7
		c5.7,0,8.5,2,8.8,6.2c0,0.1,0,0.3-0.1,0.4c-0.1,0.1-0.2,0.2-0.4,0.2h-2.3c-0.2,0-0.4-0.2-0.5-0.4c-0.6-2.4-1.9-3.2-5.5-3.2
		c-4.1,0-4.5,1.4-4.5,2.5c0,1.3,0.6,1.7,6.1,2.4c5.4,0.7,8,1.7,8,5.6C160.4-286.3,157.1-284,151.6-284.1 M173.1-305.7h0.6
		c0.5,0,0.6-0.3,0.6-0.5c0-0.5-0.4-0.5-0.6-0.5h-0.6L173.1-305.7z M172.4-307.4h1.3c0.5,0,1.3,0,1.3,1c0,0.7-0.5,0.9-0.7,0.9
		c0.5,0,0.6,0.4,0.6,0.9c0,0.3,0.1,0.8,0.2,1h-0.8c0-0.2-0.1-1.2-0.1-1.2c-0.1-0.2-0.1-0.3-0.4-0.3h-0.7v1.5h-0.7V-307.4z
		 M170.8-305.5c0,1.6,1.3,2.9,2.9,2.9c1.6,0,2.9-1.3,2.9-2.9c0-1.6-1.3-2.9-2.9-2.9C172.1-308.3,170.8-307.1,170.8-305.5
		 M177.1-305.5c0,1.9-1.5,3.4-3.4,3.4c-1.9,0-3.4-1.5-3.4-3.4c0-1.9,1.6-3.4,3.4-3.4C175.5-308.9,177.1-307.4,177.1-305.5"/>
	<path class="st7" d="M91.3-349.9c0-0.8-0.4-1.6-1.1-2l-18.8-10.8c-0.3-0.2-0.7-0.3-1-0.3h-0.2c-0.4,0-0.7,0.1-1,0.3l-18.8,10.8
		c-0.7,0.4-1.1,1.2-1.1,2l0,29.1c0,0.4,0.2,0.8,0.6,1c0.3,0.2,0.8,0.2,1.1,0l11.2-6.4c0.7-0.4,1.1-1.2,1.1-2v-13.6
		c0-0.8,0.4-1.6,1.1-2l4.7-2.7c0.4-0.2,0.7-0.3,1.1-0.3c0.4,0,0.8,0.1,1.1,0.3l4.7,2.7c0.7,0.4,1.1,1.2,1.1,2v13.6
		c0,0.8,0.4,1.6,1.1,2l11.1,6.4c0.3,0.2,0.8,0.2,1.1,0c0.3-0.2,0.6-0.6,0.6-1L91.3-349.9z M179.8-334.8c0,0.2-0.1,0.4-0.3,0.5
		l-6.4,3.7c-0.2,0.1-0.4,0.1-0.6,0l-6.4-3.7c-0.2-0.1-0.3-0.3-0.3-0.5v-7.4c0-0.2,0.1-0.4,0.3-0.5l6.4-3.7c0.2-0.1,0.4-0.1,0.6,0
		l6.4,3.7c0.2,0.1,0.3,0.3,0.3,0.5L179.8-334.8z M181.6-389.9c-0.4-0.2-0.8-0.2-1.1,0c-0.3,0.2-0.6,0.6-0.6,1v28.8
		c0,0.3-0.2,0.5-0.4,0.7c-0.2,0.1-0.5,0.1-0.8,0l-4.7-2.7c-0.7-0.4-1.6-0.4-2.3,0L153-351.3c-0.7,0.4-1.1,1.2-1.1,2v21.7
		c0,0.8,0.4,1.6,1.1,2l18.8,10.8c0.7,0.4,1.6,0.4,2.3,0l18.8-10.8c0.7-0.4,1.1-1.2,1.1-2v-54c0-0.8-0.4-1.6-1.2-2L181.6-389.9z
		 M244.1-342.4c0.7-0.4,1.1-1.2,1.1-2v-5.3c0-0.8-0.4-1.6-1.1-2l-18.6-10.8c-0.7-0.4-1.6-0.4-2.3,0l-18.8,10.8
		c-0.7,0.4-1.1,1.2-1.1,2v21.7c0,0.8,0.4,1.6,1.1,2l18.6,10.6c0.7,0.4,1.5,0.4,2.2,0l11.3-6.3c0.4-0.2,0.6-0.6,0.6-1
		c0-0.4-0.2-0.8-0.6-1l-18.9-10.8c-0.4-0.2-0.6-0.6-0.6-1v-6.8c0-0.4,0.2-0.8,0.6-1l5.9-3.4c0.3-0.2,0.8-0.2,1.1,0l5.9,3.4
		c0.3,0.2,0.6,0.6,0.6,1v5.3c0,0.4,0.2,0.8,0.6,1c0.3,0.2,0.8,0.2,1.1,0L244.1-342.4z"/>
	<path class="st6" d="M224-343.4c0.1-0.1,0.3-0.1,0.4,0l3.6,2.1c0.1,0.1,0.2,0.2,0.2,0.4v4.2c0,0.2-0.1,0.3-0.2,0.4l-3.6,2.1
		c-0.1,0.1-0.3,0.1-0.4,0l-3.6-2.1c-0.1-0.1-0.2-0.2-0.2-0.4v-4.2c0-0.2,0.1-0.3,0.2-0.4L224-343.4z"/>
	<g>
		<defs>
			<path id="SVGID_1_" d="M120.4-362.3l-18.7,10.8c-0.7,0.4-1.1,1.1-1.1,2v21.6c0,0.8,0.4,1.5,1.1,2l18.7,10.8
				c0.7,0.4,1.6,0.4,2.3,0l18.7-10.8c0.7-0.4,1.1-1.1,1.1-2v-21.6c0-0.8-0.4-1.5-1.1-2l-18.7-10.8c-0.3-0.2-0.7-0.3-1.1-0.3
				S120.8-362.5,120.4-362.3"/>
		</defs>
		<clipPath id="SVGID_2_">
			<use xlink:href="#SVGID_1_"  style="overflow:visible;"/>
		</clipPath>
		<g transform="translate(-78.306 -164.016)" class="st8">
			
				<linearGradient id="SVGID_3_" gradientUnits="userSpaceOnUse" x1="-22.8084" y1="563.9167" x2="-22.2772" y2="563.9167" gradientTransform="matrix(-50.7531 103.536 103.536 50.7531 -59329.9141 -26461.2559)">
				<stop  offset="0.3" style="stop-color:#3E863D"/>
				<stop  offset="0.5" style="stop-color:#55934F"/>
				<stop  offset="0.8" style="stop-color:#5AAD45"/>
			</linearGradient>
			<path class="st9" d="M239.6-189.3l-52.6-25.8l-27,55l52.6,25.8L239.6-189.3z"/>
		</g>
	</g>
	<g>
		<defs>
			<path id="SVGID_4_" d="M101.1-326.6c0.2,0.2,0.4,0.4,0.7,0.6l16,9.2l2.7,1.5c0.4,0.2,0.9,0.3,1.3,0.3c0.1,0,0.3,0,0.4-0.1
				l19.7-36c-0.2-0.2-0.3-0.3-0.5-0.4l-12.2-7.1l-6.5-3.7c-0.2-0.1-0.4-0.2-0.6-0.2L101.1-326.6z"/>
		</defs>
		<clipPath id="SVGID_5_">
			<use xlink:href="#SVGID_4_"  style="overflow:visible;"/>
		</clipPath>
		<g transform="translate(-78.306 -164.016)" class="st10">
			
				<linearGradient id="SVGID_6_" gradientUnits="userSpaceOnUse" x1="-19.8028" y1="566.3478" x2="-19.4581" y2="566.3478" gradientTransform="matrix(142.4074 -105.2221 -105.2221 -142.4074 62587.6406 78411.8281)">
				<stop  offset="0.57" style="stop-color:#3E863D"/>
				<stop  offset="0.72" style="stop-color:#619857"/>
				<stop  offset="1" style="stop-color:#76AC64"/>
			</linearGradient>
			<path class="st11" d="M156.7-181.7l37.1,50.3l49.1-36.3L205.8-218L156.7-181.7z"/>
		</g>
	</g>
	<g>
		<defs>
			<path id="SVGID_7_" d="M121.3-362.6c-0.3,0-0.6,0.1-0.9,0.3l-18.6,10.7l20.1,36.5c0.3,0,0.6-0.1,0.8-0.3l18.7-10.8
				c0.6-0.3,1-0.9,1.1-1.5L122-362.5c-0.2,0-0.3,0-0.5,0C121.5-362.6,121.4-362.6,121.3-362.6"/>
		</defs>
		<clipPath id="SVGID_8_">
			<use xlink:href="#SVGID_7_"  style="overflow:visible;"/>
		</clipPath>
		<g transform="translate(-78.306 -164.016)" class="st12">
			
				<linearGradient id="SVGID_9_" gradientUnits="userSpaceOnUse" x1="-20.3237" y1="567.2792" x2="-20.0111" y2="567.2792" gradientTransform="matrix(129.8891 0 0 -129.8891 2819.9729 73508.6172)">
				<stop  offset="0.16" style="stop-color:#6BBF47"/>
				<stop  offset="0.38" style="stop-color:#79B461"/>
				<stop  offset="0.47" style="stop-color:#75AC64"/>
				<stop  offset="0.7" style="stop-color:#659E5A"/>
				<stop  offset="0.9" style="stop-color:#3E863D"/>
			</linearGradient>
			<path class="st13" d="M180.1-198.6v47.6h40.6v-47.6H180.1z"/>
		</g>
	</g>
	<path class="st6" d="M146.1-270c-0.6,0-1.3-0.2-1.9-0.5l-5.9-3.5c-0.9-0.5-0.5-0.7-0.2-0.8c1.2-0.4,1.4-0.5,2.7-1.2
		c0.1-0.1,0.3,0,0.4,0l4.5,2.7c0.2,0.1,0.4,0.1,0.5,0l17.7-10.2c0.2-0.1,0.3-0.3,0.3-0.5v-20.4c0-0.2-0.1-0.4-0.3-0.5l-17.7-10.2
		c-0.2-0.1-0.4-0.1-0.5,0l-17.7,10.2c-0.2,0.1-0.3,0.3-0.3,0.5v20.4c0,0.2,0.1,0.4,0.3,0.5l4.8,2.8c2.6,1.3,4.2-0.2,4.2-1.8v-20.2
		c0-0.3,0.2-0.5,0.5-0.5h2.2c0.3,0,0.5,0.2,0.5,0.5v20.2c0,3.5-1.9,5.5-5.2,5.5c-1,0-1.8,0-4.1-1.1l-4.6-2.7
		c-1.1-0.7-1.9-1.9-1.9-3.2v-20.4c0-1.3,0.7-2.6,1.9-3.2l17.7-10.2c1.1-0.6,2.6-0.6,3.7,0l17.7,10.2c1.1,0.7,1.9,1.9,1.9,3.2v20.4
		c0,1.3-0.7,2.6-1.9,3.2L148-270.5C147.4-270.2,146.8-270,146.1-270"/>
	<path class="st6" d="M151.6-284.1c-7.7,0-9.4-3.6-9.4-6.5c0-0.3,0.2-0.5,0.5-0.5h2.3c0.3,0,0.5,0.2,0.5,0.4
		c0.3,2.3,1.4,3.5,6.1,3.5c3.7,0,5.3-0.8,5.3-2.8c0-1.1-0.5-2-6.2-2.6c-4.8-0.5-7.8-1.5-7.8-5.4c0-3.6,3-5.7,8.1-5.7
		c5.7,0,8.5,2,8.8,6.2c0,0.1,0,0.3-0.1,0.4c-0.1,0.1-0.2,0.2-0.4,0.2h-2.3c-0.2,0-0.4-0.2-0.5-0.4c-0.6-2.4-1.9-3.2-5.5-3.2
		c-4.1,0-4.5,1.4-4.5,2.5c0,1.3,0.6,1.7,6.1,2.4c5.4,0.7,8,1.7,8,5.6C160.4-286.3,157.1-284,151.6-284.1 M173.1-305.7h0.6
		c0.5,0,0.6-0.3,0.6-0.5c0-0.5-0.4-0.5-0.6-0.5h-0.6L173.1-305.7z M172.4-307.4h1.3c0.5,0,1.3,0,1.3,1c0,0.7-0.5,0.9-0.7,0.9
		c0.5,0,0.6,0.4,0.6,0.9c0,0.3,0.1,0.8,0.2,1h-0.8c0-0.2-0.1-1.2-0.1-1.2c-0.1-0.2-0.1-0.3-0.4-0.3h-0.7v1.5h-0.7V-307.4z
		 M170.8-305.5c0,1.6,1.3,2.9,2.9,2.9c1.6,0,2.9-1.3,2.9-2.9c0-1.6-1.3-2.9-2.9-2.9C172.1-308.3,170.8-307.1,170.8-305.5
		 M177.1-305.5c0,1.9-1.5,3.4-3.4,3.4c-1.9,0-3.4-1.5-3.4-3.4c0-1.9,1.6-3.4,3.4-3.4C175.5-308.9,177.1-307.4,177.1-305.5"/>
	<path class="st7" d="M91.3-349.9c0-0.8-0.4-1.6-1.1-2l-18.8-10.8c-0.3-0.2-0.7-0.3-1-0.3h-0.2c-0.4,0-0.7,0.1-1,0.3l-18.8,10.8
		c-0.7,0.4-1.1,1.2-1.1,2l0,29.1c0,0.4,0.2,0.8,0.6,1c0.3,0.2,0.8,0.2,1.1,0l11.2-6.4c0.7-0.4,1.1-1.2,1.1-2v-13.6
		c0-0.8,0.4-1.6,1.1-2l4.7-2.7c0.4-0.2,0.7-0.3,1.1-0.3c0.4,0,0.8,0.1,1.1,0.3l4.7,2.7c0.7,0.4,1.1,1.2,1.1,2v13.6
		c0,0.8,0.4,1.6,1.1,2l11.1,6.4c0.3,0.2,0.8,0.2,1.1,0c0.3-0.2,0.6-0.6,0.6-1L91.3-349.9z M179.8-334.8c0,0.2-0.1,0.4-0.3,0.5
		l-6.4,3.7c-0.2,0.1-0.4,0.1-0.6,0l-6.4-3.7c-0.2-0.1-0.3-0.3-0.3-0.5v-7.4c0-0.2,0.1-0.4,0.3-0.5l6.4-3.7c0.2-0.1,0.4-0.1,0.6,0
		l6.4,3.7c0.2,0.1,0.3,0.3,0.3,0.5L179.8-334.8z M181.6-389.9c-0.4-0.2-0.8-0.2-1.1,0c-0.3,0.2-0.6,0.6-0.6,1v28.8
		c0,0.3-0.2,0.5-0.4,0.7c-0.2,0.1-0.5,0.1-0.8,0l-4.7-2.7c-0.7-0.4-1.6-0.4-2.3,0L153-351.3c-0.7,0.4-1.1,1.2-1.1,2v21.7
		c0,0.8,0.4,1.6,1.1,2l18.8,10.8c0.7,0.4,1.6,0.4,2.3,0l18.8-10.8c0.7-0.4,1.1-1.2,1.1-2v-54c0-0.8-0.4-1.6-1.2-2L181.6-389.9z
		 M244.1-342.4c0.7-0.4,1.1-1.2,1.1-2v-5.3c0-0.8-0.4-1.6-1.1-2l-18.6-10.8c-0.7-0.4-1.6-0.4-2.3,0l-18.8,10.8
		c-0.7,0.4-1.1,1.2-1.1,2v21.7c0,0.8,0.4,1.6,1.1,2l18.6,10.6c0.7,0.4,1.5,0.4,2.2,0l11.3-6.3c0.4-0.2,0.6-0.6,0.6-1
		c0-0.4-0.2-0.8-0.6-1l-18.9-10.8c-0.4-0.2-0.6-0.6-0.6-1v-6.8c0-0.4,0.2-0.8,0.6-1l5.9-3.4c0.3-0.2,0.8-0.2,1.1,0l5.9,3.4
		c0.3,0.2,0.6,0.6,0.6,1v5.3c0,0.4,0.2,0.8,0.6,1c0.3,0.2,0.8,0.2,1.1,0L244.1-342.4z"/>
	<path class="st6" d="M224-343.4c0.1-0.1,0.3-0.1,0.4,0l3.6,2.1c0.1,0.1,0.2,0.2,0.2,0.4v4.2c0,0.2-0.1,0.3-0.2,0.4l-3.6,2.1
		c-0.1,0.1-0.3,0.1-0.4,0l-3.6-2.1c-0.1-0.1-0.2-0.2-0.2-0.4v-4.2c0-0.2,0.1-0.3,0.2-0.4L224-343.4z"/>
	<g>
		<defs>
			<path id="SVGID_10_" d="M120.4-362.3l-18.7,10.8c-0.7,0.4-1.1,1.1-1.1,2v21.6c0,0.8,0.4,1.5,1.1,2l18.7,10.8
				c0.7,0.4,1.6,0.4,2.3,0l18.7-10.8c0.7-0.4,1.1-1.1,1.1-2v-21.6c0-0.8-0.4-1.5-1.1-2l-18.7-10.8c-0.3-0.2-0.7-0.3-1.1-0.3
				S120.8-362.5,120.4-362.3"/>
		</defs>
		<clipPath id="SVGID_11_">
			<use xlink:href="#SVGID_10_"  style="overflow:visible;"/>
		</clipPath>
		<g transform="translate(-78.306 -164.016)" class="st14">
			
				<linearGradient id="SVGID_12_" gradientUnits="userSpaceOnUse" x1="-22.8084" y1="563.9167" x2="-22.2772" y2="563.9167" gradientTransform="matrix(-50.7531 103.536 103.536 50.7531 -59329.9141 -26461.2559)">
				<stop  offset="0.3" style="stop-color:#3E863D"/>
				<stop  offset="0.5" style="stop-color:#55934F"/>
				<stop  offset="0.8" style="stop-color:#5AAD45"/>
			</linearGradient>
			<path class="st15" d="M239.6-189.3l-52.6-25.8l-27,55l52.6,25.8L239.6-189.3z"/>
		</g>
	</g>
	<g>
		<defs>
			<path id="SVGID_13_" d="M101.1-326.6c0.2,0.2,0.4,0.4,0.7,0.6l16,9.2l2.7,1.5c0.4,0.2,0.9,0.3,1.3,0.3c0.1,0,0.3,0,0.4-0.1
				l19.7-36c-0.2-0.2-0.3-0.3-0.5-0.4l-12.2-7.1l-6.5-3.7c-0.2-0.1-0.4-0.2-0.6-0.2L101.1-326.6z"/>
		</defs>
		<clipPath id="SVGID_14_">
			<use xlink:href="#SVGID_13_"  style="overflow:visible;"/>
		</clipPath>
		<g transform="translate(-78.306 -164.016)" class="st16">
			
				<linearGradient id="SVGID_15_" gradientUnits="userSpaceOnUse" x1="-19.8028" y1="566.3478" x2="-19.4581" y2="566.3478" gradientTransform="matrix(142.4074 -105.2221 -105.2221 -142.4074 62587.6406 78411.8281)">
				<stop  offset="0.57" style="stop-color:#3E863D"/>
				<stop  offset="0.72" style="stop-color:#619857"/>
				<stop  offset="1" style="stop-color:#76AC64"/>
			</linearGradient>
			<path class="st17" d="M156.7-181.7l37.1,50.3l49.1-36.3L205.8-218L156.7-181.7z"/>
		</g>
	</g>
	<g>
		<defs>
			<path id="SVGID_16_" d="M121.3-362.6c-0.3,0-0.6,0.1-0.9,0.3l-18.6,10.7l20.1,36.5c0.3,0,0.6-0.1,0.8-0.3l18.7-10.8
				c0.6-0.3,1-0.9,1.1-1.5L122-362.5c-0.2,0-0.3,0-0.5,0C121.5-362.6,121.4-362.6,121.3-362.6"/>
		</defs>
		<clipPath id="SVGID_17_">
			<use xlink:href="#SVGID_16_"  style="overflow:visible;"/>
		</clipPath>
		<g transform="translate(-78.306 -164.016)" class="st18">
			
				<linearGradient id="SVGID_18_" gradientUnits="userSpaceOnUse" x1="-20.3237" y1="567.2792" x2="-20.0111" y2="567.2792" gradientTransform="matrix(129.8891 0 0 -129.8891 2819.9729 73508.6172)">
				<stop  offset="0.16" style="stop-color:#6BBF47"/>
				<stop  offset="0.38" style="stop-color:#79B461"/>
				<stop  offset="0.47" style="stop-color:#75AC64"/>
				<stop  offset="0.7" style="stop-color:#659E5A"/>
				<stop  offset="0.9" style="stop-color:#3E863D"/>
			</linearGradient>
			<path class="st19" d="M180.1-198.6v47.6h40.6v-47.6H180.1z"/>
		</g>
	</g>
</g>
<g>
	<path class="st20" d="M-573-453h199v199h-199V-453z"/>
	<path d="M-520.7-286.7l15.2-9.2c2.9,5.2,5.6,9.6,12,9.6c6.1,0,10-2.4,10-11.8v-63.6h18.7v63.8c0,19.4-11.4,28.2-27.9,28.2
		C-507.6-269.6-516.3-277.4-520.7-286.7"/>
	<path d="M-454.5-288.7l15.2-8.8c4,6.5,9.2,11.4,18.4,11.4c7.7,0,12.7-3.9,12.7-9.2c0-6.4-5.1-8.7-13.6-12.4l-4.7-2
		c-13.5-5.7-22.4-13-22.4-28.2c0-14,10.7-24.7,27.4-24.7c11.9,0,20.4,4.1,26.6,15l-14.6,9.4c-3.2-5.7-6.7-8-12-8c-5.5,0-9,3.5-9,8
		c0,5.6,3.5,7.9,11.5,11.4l4.7,2c15.9,6.8,24.8,13.8,24.8,29.4c0,16.8-13.2,26-31,26C-437.9-269.6-449.1-277.9-454.5-288.7"/>
</g>
<g>
	<path class="st2" d="M-398,69.7c0,16.4,16,31.8,41.3,40.4c-5,25.4-0.9,45.9,12.9,53.9c14.2,8.2,35.4,2.5,55.6-15.1
		c19.6,16.9,39.4,23.5,53.3,15.5c14.2-8.2,18.5-30.1,13.4-56.3c26.3-8.7,41.1-21.8,41.1-38.4c0-16-16.1-29.9-41-38.5
		c5.6-27.3,0.9-47.3-13.6-55.6c-13.9-8-34-1-53.9,16.3c-20.7-18.4-40.6-24-55-15.7c-13.9,8-17.8,28.9-12.8,54.8
		C-381.1,39.5-398,53.7-398,69.7z"/>
	<path class="st21" d="M-226.8,39.7c-2.1-0.7-4.1-1.4-6.2-2c0.3-1.4,0.7-2.8,1-4.2c4.7-22.9,1.6-41.3-8.9-47.3
		c-10.1-5.8-26.6,0.2-43.2,14.7c-1.6,1.4-3.2,2.9-4.8,4.4c-1-1-2.1-2-3.2-3c-17.4-15.5-34.9-22-45.4-15.9
		c-10.1,5.8-13,23.1-8.8,44.8c0.4,2.1,0.9,4.3,1.4,6.4c-2.5,0.7-4.9,1.5-7.1,2.2c-20.5,7.1-33.5,18.3-33.5,29.9
		c0,12,14,24,35.3,31.3c1.7,0.6,3.5,1.1,5.2,1.6c-0.6,2.3-1.1,4.6-1.5,6.9c-4,21.3-0.9,38.2,9.2,44c10.4,6,27.8-0.2,44.7-15
		c1.3-1.2,2.7-2.4,4-3.7c1.7,1.6,3.4,3.2,5.2,4.8c16.4,14.1,32.6,19.8,42.7,14c10.4-6,13.7-24.1,9.4-46.2c-0.3-1.7-0.7-3.4-1.2-5.2
		c1.2-0.4,2.4-0.7,3.6-1.1c22.1-7.3,36.6-19.2,36.6-31.3C-192.5,58.2-205.9,46.9-226.8,39.7L-226.8,39.7z"/>
	<path class="st2" d="M-231.6,93.3c-1.1,0.3-2.1,0.7-3.2,1c-2.4-7.7-5.7-16-9.8-24.5c3.9-8.3,7-16.4,9.4-24.1c2,0.6,3.9,1.2,5.7,1.8
		c17.9,6.2,28.8,15.3,28.8,22.3C-200.7,77.3-212.5,87-231.6,93.3L-231.6,93.3z M-239.5,109c1.9,9.8,2.2,18.6,0.9,25.5
		c-1.2,6.2-3.5,10.3-6.3,12c-6.1,3.5-19.1-1.1-33.1-13.1c-1.6-1.4-3.2-2.9-4.9-4.4c5.4-6,10.9-12.9,16.2-20.6
		c9.3-0.8,18.2-2.2,26.2-4C-240.2,105.9-239.8,107.5-239.5,109L-239.5,109z M-319.8,145.9c-5.9,2.1-10.7,2.2-13.5,0.5
		c-6.1-3.5-8.6-17.1-5.2-35.3c0.4-2.2,0.9-4.3,1.4-6.4c7.9,1.8,16.7,3,26,3.8c5.3,7.5,10.9,14.4,16.6,20.5c-1.2,1.2-2.4,2.3-3.7,3.4
		C-305.6,138.9-313.2,143.6-319.8,145.9L-319.8,145.9z M-347.6,93.2c-9.4-3.2-17.2-7.4-22.5-12c-4.8-4.1-7.2-8.2-7.2-11.5
		c0-7,10.5-16,28-22.1c2.2-0.8,4.4-1.5,6.6-2.1c2.4,7.9,5.6,16.1,9.4,24.4c-3.9,8.4-7.1,16.8-9.5,24.7
		C-344.5,94.3-346.1,93.8-347.6,93.2z M-338.3,29.7c-3.6-18.6-1.2-32.5,4.8-36.1c6.5-3.7,20.8,1.6,35.8,15c1,0.9,1.9,1.8,2.9,2.7
		c-5.6,6-11.2,12.9-16.5,20.4c-9.1,0.8-17.8,2.2-25.8,4C-337.5,33.6-337.9,31.7-338.3,29.7L-338.3,29.7z M-255,50.2
		c-1.9-3.3-3.8-6.5-5.9-9.7c6.2,0.8,12.1,1.8,17.6,3.1c-1.7,5.3-3.7,10.9-6.2,16.6C-251.2,56.9-253.1,53.6-255,50.2L-255,50.2z
		 M-289,17.1c3.8,4.1,7.6,8.7,11.4,13.7c-7.6-0.4-15.2-0.4-22.8,0C-296.7,25.9-292.8,21.3-289,17.1L-289,17.1z M-323.2,50.3
		c-1.9,3.3-3.7,6.6-5.5,10c-2.4-5.7-4.5-11.3-6.1-16.7c5.5-1.2,11.4-2.2,17.5-3C-319.3,43.8-321.3,47-323.2,50.3z M-317.1,99.6
		c-6.3-0.7-12.3-1.7-17.8-2.9c1.7-5.5,3.8-11.2,6.3-17.1c1.7,3.4,3.6,6.7,5.5,10C-321.2,93-319.2,96.4-317.1,99.6z M-288.7,123
		c-3.9-4.2-7.8-8.9-11.6-13.9c3.7,0.1,7.5,0.2,11.3,0.2c3.9,0,7.8-0.1,11.7-0.3C-281.1,114.2-284.9,118.9-288.7,123z M-249.3,79.4
		c2.6,5.9,4.8,11.6,6.5,17c-5.6,1.3-11.6,2.3-18,3.1c2-3.2,4-6.5,5.9-9.8C-253,86.3-251.1,82.8-249.3,79.4L-249.3,79.4z
		 M-262.1,85.5c-2.9,5.1-6,10.1-9.3,15c-5.7,0.4-11.7,0.6-17.7,0.6c-6,0-11.9-0.2-17.5-0.6c-3.3-4.9-6.5-9.9-9.4-15
		c-2.9-5.1-5.7-10.3-8.2-15.6c2.5-5.3,5.3-10.5,8.2-15.6v0c2.9-5.1,6.1-10.1,9.4-14.9c5.7-0.4,11.6-0.7,17.6-0.7
		c6,0,11.9,0.2,17.6,0.7c3.3,4.8,6.4,9.8,9.3,14.9c2.9,5.1,5.7,10.2,8.3,15.5C-256.4,75.2-259.1,80.4-262.1,85.5L-262.1,85.5z
		 M-245.1-6.6c6.5,3.7,9,18.8,4.9,38.5c-0.3,1.3-0.6,2.6-0.9,3.8c-8-1.8-16.7-3.2-25.8-4.1c-5.3-7.6-10.8-14.4-16.3-20.4
		c1.4-1.4,2.9-2.8,4.4-4.1C-264.5-5.2-251.1-10.1-245.1-6.6L-245.1-6.6z"/>
	<path class="st21" d="M-289,52.5c9.5,0,17.2,7.7,17.2,17.2c0,9.5-7.7,17.3-17.2,17.3c-9.5,0-17.2-7.7-17.2-17.3
		C-306.3,60.3-298.6,52.5-289,52.5"/>
</g>
<g>
	<path class="st22" d="M194.8,99.5c0-12.6-15.7-24.5-39.9-31.9c5.6-24.6,3.1-44.1-7.8-50.4c-2.5-1.5-5.5-2.2-8.7-2.2v8.6
		c1.8,0,3.2,0.3,4.4,1c5.3,3,7.5,14.5,5.8,29.3c-0.4,3.6-1.1,7.5-2,11.4c-7.6-1.9-15.9-3.3-24.5-4.2c-5.2-7.2-10.6-13.6-16.1-19.3
		c12.6-11.7,24.4-18.1,32.5-18.1V15l0,0c-10.6,0-24.5,7.6-38.6,20.7c-14.1-13.1-28-20.6-38.6-20.6v8.6c8,0,19.9,6.4,32.5,18
		c-5.4,5.7-10.8,12.1-16,19.3c-8.7,0.9-17,2.4-24.6,4.3c-0.9-3.9-1.5-7.6-2-11.2c-1.8-14.8,0.4-26.2,5.6-29.3c1.2-0.7,2.7-1,4.4-1
		v-8.6l0,0c-3.2,0-6.2,0.7-8.7,2.2c-10.9,6.3-13.3,25.8-7.7,50.3c-24,7.4-39.7,19.3-39.7,31.8c0,12.6,15.7,24.5,39.9,31.9
		c-5.6,24.6-3.1,44.1,7.8,50.4c2.5,1.5,5.5,2.2,8.7,2.2c10.6,0,24.5-7.6,38.6-20.7c14.1,13.1,28,20.6,38.6,20.6
		c3.2,0,6.2-0.7,8.7-2.2c10.9-6.3,13.3-25.8,7.7-50.3C179.2,123.9,194.8,112,194.8,99.5z M144.5,73.7c-1.4,5-3.2,10.1-5.2,15.3
		c-1.6-3.1-3.2-6.2-5.1-9.3c-1.8-3.1-3.7-6.1-5.6-9C134.1,71.4,139.4,72.4,144.5,73.7z M126.8,114.9c-3,5.2-6.1,10.2-9.3,14.8
		c-5.8,0.5-11.6,0.8-17.5,0.8c-5.8,0-11.7-0.3-17.4-0.7c-3.2-4.6-6.3-9.5-9.4-14.7c-2.9-5.1-5.6-10.2-8-15.4
		c2.4-5.2,5.1-10.4,8-15.4c3-5.2,6.1-10.2,9.3-14.8c5.8-0.5,11.6-0.8,17.5-0.8c5.8,0,11.7,0.3,17.4,0.7c3.2,4.6,6.3,9.5,9.4,14.7
		c2.9,5.1,5.6,10.2,8,15.4C132.4,104.6,129.7,109.8,126.8,114.9z M139.3,109.8c2.1,5.2,3.9,10.4,5.3,15.4
		c-5.1,1.2-10.4,2.3-15.9,3.1c1.9-3,3.8-6,5.6-9.2C136,116.1,137.7,112.9,139.3,109.8z M100.1,151.1c-3.6-3.7-7.2-7.8-10.7-12.4
		c3.5,0.2,7,0.3,10.6,0.3c3.6,0,7.2-0.1,10.7-0.3C107.2,143.2,103.6,147.4,100.1,151.1z M71.3,128.3c-5.5-0.8-10.8-1.8-15.9-3.1
		c1.4-5,3.2-10.1,5.2-15.3c1.6,3.1,3.2,6.2,5.1,9.3C67.6,122.4,69.4,125.4,71.3,128.3z M99.9,47.9c3.6,3.7,7.2,7.8,10.7,12.4
		c-3.5-0.2-7-0.3-10.6-0.3c-3.6,0-7.2,0.1-10.7,0.3C92.7,55.7,96.3,51.6,99.9,47.9z M71.3,70.6c-1.9,3-3.8,6-5.6,9.2
		c-1.8,3.1-3.4,6.2-5,9.3c-2.1-5.2-3.9-10.4-5.3-15.4C60.4,72.5,65.7,71.4,71.3,70.6z M36.3,119c-13.7-5.8-22.5-13.5-22.5-19.6
		s8.9-13.8,22.5-19.6c3.3-1.4,7-2.7,10.7-3.9c2.2,7.6,5.1,15.5,8.7,23.5c-3.6,8-6.4,15.9-8.6,23.4C43.3,121.8,39.7,120.5,36.3,119z
		 M57.1,174.3c-5.3-3-7.5-14.5-5.8-29.3c0.4-3.6,1.1-7.5,2-11.4c7.6,1.9,15.9,3.3,24.5,4.2c5.2,7.2,10.6,13.6,16.1,19.3
		c-12.6,11.7-24.4,18.1-32.5,18.1C59.7,175.3,58.2,174.9,57.1,174.3z M148.8,144.8c1.8,14.8-0.4,26.2-5.6,29.3c-1.2,0.7-2.7,1-4.4,1
		c-8,0-19.9-6.4-32.5-18c5.4-5.7,10.8-12.1,16-19.3c8.7-0.9,17-2.4,24.6-4.3C147.7,137.5,148.4,141.2,148.8,144.8z M163.7,119
		c-3.3,1.4-7,2.7-10.7,3.9c-2.2-7.6-5.1-15.5-8.7-23.5c3.6-8,6.4-15.9,8.6-23.4c3.8,1.2,7.5,2.5,10.9,3.9
		c13.7,5.8,22.5,13.5,22.5,19.6C186.2,105.5,177.4,113.2,163.7,119z"/>
	<path class="st22" d="M61.3,15.2L61.3,15.2L61.3,15.2z"/>
	<circle class="st22" cx="100" cy="99.5" r="17.7"/>
	<path class="st22" d="M138.5,15L138.5,15L138.5,15z"/>
</g>
</svg>
